SourceSansPro-Italic_1.ufo
<glyph name="IJ" format="1">
  <advance width="624"/>
  <unicode hex="0132"/>
  <outline>
    <contour>
      <point x="628" y="650" type="line"/>
      <point x="468" y="650" type="line"/>
      <point x="342" y="16" type="line"/>
      <point x="330" y="-36"/>
      <point x="318" y="-56"/>
      <point x="286" y="-56" type="curve" smooth="yes"/>
      <point x="272" y="-56"/>
      <point x="258" y="-52"/>
      <point x="244" y="-44" type="curve"/>
      <point x="196" y="-158" type="line"/>
      <point x="232" y="-176"/>
      <point x="264" y="-182"/>
      <point x="300" y="-182" type="curve" smooth="yes"/>
      <point x="424" y="-182"/>
      <point x="478" y="-96"/>
      <point x="500" y="8" type="curve" smooth="yes"/>
    </contour>
    <contour>
      <point x="26" y="0" type="line"/>
      <point x="186" y="0" type="line"/>
      <point x="316" y="650" type="line"/>
      <point x="156" y="650" type="line"/>
    </contour>
  </outline>
</glyph>
<glyph name="tonos" format="1">
  <advance width="540"/>
  <unicode hex="0384"/>
  <outline>
    <component base="tonoscmb" xOffset="220"/>
    <contour>
      <point x="334.0" y="522.0" type="move" name="_aboveLC"/>
    </contour>
  </outline>
</glyph>
<glyph name="Zeta" format="1">
  <advance width="530"/>
  <unicode hex="0396"/>
  <outline>
    <component base="Z"/>
    <contour>
      <point x="368.0" y="682.0" type="move" name="aboveUC"/>
    </contour>
    <contour>
      <point x="218.0" y="-30.0" type="move" name="belowLC"/>
    </contour>
  </outline>
</glyph>
<glyph name="Kappa" format="1">
  <advance width="622"/>
  <unicode hex="039A"/>
  <outline>
    <component base="K"/>
    <contour>
      <point x="430.0" y="682.0" type="move" name="aboveUC"/>
    </contour>
    <contour>
      <point x="298.0" y="-22.0" type="move" name="belowLC"/>
    </contour>
  </outline>
</glyph>
<glyph name="Pi" format="1">
  <advance width="660"/>
  <unicode hex="03A0"/>
  <outline>
    <contour>
      <point x="26" y="0" type="line"/>
      <point x="186" y="0" type="line"/>
      <point x="288" y="516" type="line"/>
      <point x="478" y="516" type="line"/>
      <point x="374" y="0" type="line"/>
      <point x="534" y="0" type="line"/>
      <point x="664" y="650" type="line"/>
      <point x="156" y="650" type="line"/>
    </contour>
  </outline>
</glyph>
<glyph name="Sigma" format="1">
  <advance width="530"/>
  <unicode hex="03A3"/>
  <outline>
    <contour>
      <point x="-10" y="0" type="line"/>
      <point x="453" y="0" type="line"/>
      <point x="479" y="132" type="line"/>
      <point x="213" y="132" type="line"/>
      <point x="402" y="336" type="line"/>
      <point x="294" y="528" type="line"/>
      <point x="533" y="528" type="line"/>
      <point x="559" y="660" type="line"/>
      <point x="124" y="660" type="line"/>
      <point x="105" y="565" type="line"/>
      <point x="243" y="332" type="line"/>
      <point x="9" y="95" type="line"/>
    </contour>
  </outline>
</glyph>
<glyph name="epsilon" format="1">
  <advance width="449"/>
  <unicode hex="03B5"/>
  <outline>
    <contour>
      <point x="204" y="-12" type="curve" smooth="yes"/>
      <point x="274" y="-12"/>
      <point x="335" y="4"/>
      <point x="400" y="46" type="curve"/>
      <point x="340" y="146" type="line"/>
      <point x="310" y="124"/>
      <point x="276" y="108"/>
      <point x="244" y="108" type="curve" smooth="yes"/>
      <point x="206" y="108"/>
      <point x="182" y="124"/>
      <point x="182" y="148" type="curve" smooth="yes"/>
      <point x="182" y="184"/>
      <point x="218" y="204"/>
      <point x="344" y="206" type="curve"/>
      <point x="328" y="320" type="line"/>
      <point x="308" y="312"/>
      <point x="292" y="310"/>
      <point x="276" y="310" type="curve" smooth="yes"/>
      <point x="252" y="310"/>
      <point x="238" y="328"/>
      <point x="238" y="342" type="curve" smooth="yes"/>
      <point x="238" y="370"/>
      <point x="260" y="390"/>
      <point x="298" y="390" type="curve" smooth="yes"/>
      <point x="326" y="390"/>
      <point x="348" y="384"/>
      <point x="374" y="362" type="curve"/>
      <point x="456" y="450" type="line"/>
      <point x="412" y="494"/>
      <point x="362" y="512"/>
      <point x="292" y="512" type="curve" smooth="yes"/>
      <point x="188" y="512"/>
      <point x="80" y="459"/>
      <point x="80" y="354" type="curve" smooth="yes"/>
      <point x="80" y="308"/>
      <point x="112" y="274"/>
      <point x="148" y="260" type="curve"/>
      <point x="148" y="256" type="line"/>
      <point x="72" y="236"/>
      <point x="18" y="192"/>
      <point x="18" y="120" type="curve" smooth="yes"/>
      <point x="18" y="34"/>
      <point x="96" y="-12"/>
    </contour>
    <contour>
      <point x="300.0" y="522.0" type="move" name="aboveLC"/>
    </contour>
  </outline>
</glyph>
<glyph name="eta" format="1">
  <advance width="548"/>
  <unicode hex="03B7"/>
  <outline>
    <contour>
      <point x="8" y="0" type="line"/>
      <point x="168" y="0" type="line"/>
      <point x="228" y="310" type="line"/>
      <point x="262" y="353"/>
      <point x="292" y="376"/>
      <point x="322" y="376" type="curve" smooth="yes"/>
      <point x="344" y="376"/>
      <point x="356" y="362"/>
      <point x="356" y="328" type="curve" smooth="yes"/>
      <point x="356" y="296"/>
      <point x="298" y="36"/>
      <point x="244" y="-176" type="curve"/>
      <point x="406" y="-176" type="line"/>
      <point x="502" y="308" type="line" smooth="yes"/>
      <point x="508" y="338"/>
      <point x="512" y="366"/>
      <point x="512" y="390" type="curve" smooth="yes"/>
      <point x="512" y="466"/>
      <point x="480" y="512"/>
      <point x="406" y="512" type="curve" smooth="yes"/>
      <point x="334" y="512"/>
      <point x="283" y="467"/>
      <point x="233" y="414" type="curve"/>
      <point x="230" y="414" type="line"/>
      <point x="236" y="500" type="line"/>
      <point x="92" y="500" type="line"/>
      <point x="92" y="444"/>
      <point x="84" y="386"/>
      <point x="76" y="346" type="curve" smooth="yes"/>
    </contour>
    <contour>
      <point x="344.0" y="522.0" type="move" name="aboveLC"/>
    </contour>
    <contour>
      <point x="99.0" y="-22.0" type="move" name="belowLC"/>
    </contour>
  </outline>
</glyph>
<glyph name="theta" format="1">
  <advance width="534"/>
  <unicode hex="03B8"/>
  <outline>
    <contour>
      <point x="143" y="300" type="line"/>
      <point x="421" y="300" type="line"/>
      <point x="442" y="403" type="line"/>
      <point x="164" y="403" type="line"/>
    </contour>
    <contour>
      <point x="344" y="708" type="curve" smooth="yes"/>
      <point x="179" y="708"/>
      <point x="52" y="520"/>
      <point x="52" y="231" type="curve" smooth="yes"/>
      <point x="52" y="69"/>
      <point x="124" y="-12"/>
      <point x="240" y="-12" type="curve" smooth="yes"/>
      <point x="405" y="-12"/>
      <point x="532" y="176"/>
      <point x="532" y="465" type="curve" smooth="yes"/>
      <point x="532" y="627"/>
      <point x="460" y="708"/>
    </contour>
    <contour>
      <point x="255" y="116" type="curve" smooth="yes"/>
      <point x="214" y="116"/>
      <point x="200" y="142"/>
      <point x="200" y="211" type="curve" smooth="yes"/>
      <point x="200" y="365"/>
      <point x="246" y="580"/>
      <point x="329" y="580" type="curve" smooth="yes"/>
      <point x="370" y="580"/>
      <point x="384" y="554"/>
      <point x="384" y="485" type="curve" smooth="yes"/>
      <point x="384" y="331"/>
      <point x="338" y="116"/>
    </contour>
  </outline>
</glyph>
<glyph name="omicron" format="1">
  <advance width="540"/>
  <unicode hex="03BF"/>
  <outline>
    <component base="o"/>
    <contour>
      <point x="334.0" y="522.0" type="move" name="aboveLC"/>
    </contour>
    <contour>
      <point x="202.0" y="-22.0" type="move" name="belowLC"/>
    </contour>
  </outline>
</glyph>
<glyph name="sigma" format="1">
  <advance width="566"/>
  <unicode hex="03C3"/>
  <outline>
    <contour>
      <point x="188" y="194" type="curve" smooth="yes"/>
      <point x="188" y="300"/>
      <point x="230" y="372"/>
      <point x="290" y="372" type="curve" smooth="yes"/>
      <point x="324" y="372"/>
      <point x="340" y="335"/>
      <point x="340" y="284" type="curve" smooth="yes"/>
      <point x="340" y="180"/>
      <point x="292" y="116"/>
      <point x="240" y="116" type="curve" smooth="yes"/>
      <point x="206" y="116"/>
      <point x="188" y="142"/>
    </contour>
    <contour>
      <point x="26" y="192" type="curve" smooth="yes"/>
      <point x="26" y="63"/>
      <point x="110" y="-12"/>
      <point x="228" y="-12" type="curve" smooth="yes"/>
      <point x="364" y="-12"/>
      <point x="478" y="111"/>
      <point x="478" y="255" type="curve" smooth="yes"/>
      <point x="478" y="306"/>
      <point x="460" y="354"/>
      <point x="424" y="378" type="curve"/>
      <point x="424" y="382" type="line"/>
      <point x="476" y="380"/>
      <point x="518" y="376"/>
      <point x="574" y="370" type="curve"/>
      <point x="600" y="500" type="line"/>
      <point x="322" y="500" type="line" smooth="yes"/>
      <point x="170" y="500"/>
      <point x="26" y="394"/>
    </contour>
  </outline>
</glyph>
<glyph name="upsilon" format="1">
  <advance width="528"/>
  <unicode hex="03C5"/>
  <outline>
    <contour>
      <point x="30" y="160" type="curve" smooth="yes"/>
      <point x="30" y="65"/>
      <point x="87" y="-12"/>
      <point x="236" y="-12" type="curve" smooth="yes"/>
      <point x="402" y="-12"/>
      <point x="500" y="140"/>
      <point x="500" y="409" type="curve" smooth="yes"/>
      <point x="500" y="436"/>
      <point x="500" y="460"/>
      <point x="494" y="510" type="curve"/>
      <point x="338" y="490" type="line"/>
      <point x="342" y="430"/>
      <point x="342" y="413"/>
      <point x="342" y="394" type="curve" smooth="yes"/>
      <point x="342" y="228"/>
      <point x="311" y="116"/>
      <point x="236" y="116" type="curve" smooth="yes"/>
      <point x="200" y="116"/>
      <point x="180" y="136"/>
      <point x="180" y="172" type="curve" smooth="yes"/>
      <point x="180" y="222"/>
      <point x="236" y="367"/>
      <point x="236" y="500" type="curve"/>
      <point x="82" y="500" type="line"/>
      <point x="76" y="356"/>
      <point x="30" y="240"/>
    </contour>
    <contour>
      <point x="288.0" y="522.0" type="move" name="aboveLC"/>
    </contour>
  </outline>
</glyph>
<glyph name="phi" format="1">
  <advance width="718"/>
  <unicode hex="03C6"/>
  <outline>
    <contour>
      <point x="428" y="272" type="curve" smooth="yes"/>
      <point x="444" y="344"/>
      <point x="464" y="364"/>
      <point x="494" y="364" type="curve" smooth="yes"/>
      <point x="518" y="364"/>
      <point x="528" y="344"/>
      <point x="528" y="304" type="curve" smooth="yes"/>
      <point x="528" y="182"/>
      <point x="466" y="112"/>
      <point x="394" y="110" type="curve"/>
      <point x="360" y="-8" type="line"/>
      <point x="530" y="-6"/>
      <point x="690" y="100"/>
      <point x="690" y="310" type="curve" smooth="yes"/>
      <point x="690" y="420"/>
      <point x="620" y="492"/>
      <point x="518" y="492" type="curve" smooth="yes"/>
      <point x="407" y="492"/>
      <point x="320" y="428"/>
      <point x="284" y="255" type="curve" smooth="yes"/>
      <point x="199" y="-176" type="line"/>
      <point x="352" y="-176" type="line"/>
      <point x="366" y="-68"/>
      <point x="400" y="122"/>
    </contour>
    <contour>
      <point x="24" y="224" type="curve" smooth="yes"/>
      <point x="24" y="64"/>
      <point x="144" y="-6"/>
      <point x="282" y="-8" type="curve"/>
      <point x="286" y="110" type="line"/>
      <point x="224" y="112"/>
      <point x="186" y="150"/>
      <point x="186" y="226" type="curve" smooth="yes"/>
      <point x="186" y="302"/>
      <point x="226" y="354"/>
      <point x="290" y="384" type="curve"/>
      <point x="238" y="512" type="line"/>
      <point x="116" y="472"/>
      <point x="24" y="378"/>
    </contour>
  </outline>
</glyph>
<glyph name="omega" format="1">
  <advance width="731"/>
  <unicode hex="03C9"/>
  <outline>
    <contour>
      <point x="178" y="-12" type="curve" smooth="yes"/>
      <point x="236" y="-12"/>
      <point x="288" y="12"/>
      <point x="328" y="83" type="curve"/>
      <point x="332" y="83" type="line"/>
      <point x="348" y="12"/>
      <point x="396" y="-12"/>
      <point x="460" y="-12" type="curve" smooth="yes"/>
      <point x="610" y="-12"/>
      <point x="700" y="122"/>
      <point x="700" y="296" type="curve" smooth="yes"/>
      <point x="700" y="374"/>
      <point x="680" y="450"/>
      <point x="656" y="510" type="curve"/>
      <point x="504" y="458" type="line"/>
      <point x="529" y="398"/>
      <point x="542" y="334"/>
      <point x="542" y="278" type="curve" smooth="yes"/>
      <point x="542" y="192"/>
      <point x="502" y="116"/>
      <point x="454" y="116" type="curve" smooth="yes"/>
      <point x="432" y="116"/>
      <point x="416" y="130"/>
      <point x="416" y="166" type="curve" smooth="yes"/>
      <point x="416" y="212"/>
      <point x="442" y="276"/>
      <point x="465" y="336" type="curve"/>
      <point x="304" y="336" type="line"/>
      <point x="304" y="276"/>
      <point x="300" y="242"/>
      <point x="284" y="186" type="curve" smooth="yes"/>
      <point x="272" y="143"/>
      <point x="252" y="116"/>
      <point x="220" y="116" type="curve" smooth="yes"/>
      <point x="188" y="116"/>
      <point x="174" y="142"/>
      <point x="174" y="180" type="curve" smooth="yes"/>
      <point x="174" y="270"/>
      <point x="208" y="348"/>
      <point x="274" y="454" type="curve"/>
      <point x="134" y="510" type="line"/>
      <point x="78" y="424"/>
      <point x="26" y="302"/>
      <point x="26" y="180" type="curve" smooth="yes"/>
      <point x="26" y="60"/>
      <point x="82" y="-12"/>
    </contour>
    <contour>
      <point x="392.0" y="522.0" type="move" name="aboveLC"/>
    </contour>
    <contour>
      <point x="328.0" y="-22.0" type="move" name="belowLC"/>
    </contour>
  </outline>
</glyph>
<glyph name="B" format="1">
  <advance width="612"/>
  <outline>
    <contour>
      <point x="26" y="0" type="line"/>
      <point x="272" y="0" type="line" smooth="yes"/>
      <point x="424" y="0"/>
      <point x="558" y="60"/>
      <point x="558" y="216" type="curve" smooth="yes"/>
      <point x="558" y="276"/>
      <point x="522" y="316"/>
      <point x="448" y="334" type="curve"/>
      <point x="450" y="338" type="line"/>
      <point x="540" y="366"/>
      <point x="590" y="430"/>
      <point x="590" y="500" type="curve" smooth="yes"/>
      <point x="590" y="606"/>
      <point x="496" y="650"/>
      <point x="364" y="650" type="curve" smooth="yes"/>
      <point x="156" y="650" type="line"/>
    </contour>
    <contour>
      <point x="264" y="390" type="line"/>
      <point x="292" y="528" type="line"/>
      <point x="338" y="528" type="line" smooth="yes"/>
      <point x="398" y="528"/>
      <point x="426" y="508"/>
      <point x="426" y="472" type="curve" smooth="yes"/>
      <point x="426" y="422"/>
      <point x="396" y="390"/>
      <point x="318" y="390" type="curve" smooth="yes"/>
    </contour>
    <contour>
      <point x="210" y="122" type="line"/>
      <point x="242" y="282" type="line"/>
      <point x="316" y="282" type="line" smooth="yes"/>
      <point x="376" y="282"/>
      <point x="404" y="258"/>
      <point x="404" y="210" type="curve" smooth="yes"/>
      <point x="404" y="156"/>
      <point x="364" y="122"/>
      <point x="284" y="122" type="curve" smooth="yes"/>
    </contour>
    <contour>
      <point x="360" y="682" type="move" name="aboveUC"/>
    </contour>
    <contour>
      <point x="272" y="-22" type="move" name="belowLC"/>
    </contour>
  </outline>
</glyph>
<glyph name="D" format="1">
  <advance width="626"/>
  <outline>
    <contour>
      <point x="26" y="0" type="line"/>
      <point x="240" y="0" type="line" smooth="yes"/>
      <point x="444" y="0"/>
      <point x="600" y="130"/>
      <point x="600" y="394" type="curve" smooth="yes"/>
      <point x="600" y="570"/>
      <point x="490" y="650"/>
      <point x="308" y="650" type="curve" smooth="yes"/>
      <point x="156" y="650" type="line"/>
    </contour>
    <contour>
      <point x="212" y="128" type="line"/>
      <point x="290" y="522" type="line"/>
      <point x="304" y="522" type="line" smooth="yes"/>
      <point x="380" y="522"/>
      <point x="436" y="486"/>
      <point x="436" y="384" type="curve" smooth="yes"/>
      <point x="436" y="196"/>
      <point x="344" y="128"/>
      <point x="236" y="128" type="curve" smooth="yes"/>
    </contour>
    <contour>
      <point x="410" y="682" type="move" name="aboveUC"/>
    </contour>
    <contour>
      <point x="296" y="-22" type="move" name="belowLC"/>
    </contour>
  </outline>
</glyph>
<glyph name="E" format="1">
  <advance width="536"/>
  <outline>
    <contour>
      <point x="26" y="0" type="line"/>
      <point x="432" y="0" type="line"/>
      <point x="458" y="134" type="line"/>
      <point x="212" y="134" type="line"/>
      <point x="240" y="268" type="line"/>
      <point x="442" y="268" type="line"/>
      <point x="468" y="402" type="line"/>
      <point x="266" y="402" type="line"/>
      <point x="288" y="516" type="line"/>
      <point x="526" y="516" type="line"/>
      <point x="552" y="650" type="line"/>
      <point x="156" y="650" type="line"/>
    </contour>
    <contour>
      <point x="380" y="682" type="move" name="aboveUC"/>
    </contour>
    <contour>
      <point x="250" y="-22" type="move" name="belowLC"/>
    </contour>
    <contour>
      <point x="348" y="0" type="move" name="ogonekUC"/>
    </contour>
  </outline>
</glyph>
<glyph name="Ecyr" format="1">
  <advance width="561"/>
  <outline>
    <contour>
      <point x="135" y="268" type="line"/>
      <point x="436" y="268" type="line"/>
      <point x="462" y="400" type="line"/>
      <point x="161" y="400" type="line"/>
    </contour>
    <contour>
      <point x="-10" y="84" type="line"/>
      <point x="35" y="20"/>
      <point x="100" y="-12"/>
      <point x="181" y="-12" type="curve" smooth="yes"/>
      <point x="363" y="-12"/>
      <point x="547" y="138"/>
      <point x="547" y="398" type="curve" smooth="yes"/>
      <point x="547" y="565"/>
      <point x="453" y="663"/>
      <point x="320" y="663" type="curve" smooth="yes"/>
      <point x="236" y="663"/>
      <point x="153" y="623"/>
      <point x="97" y="578" type="curve"/>
      <point x="160" y="477" type="line"/>
      <point x="201" y="508"/>
      <point x="238" y="527"/>
      <point x="283" y="527" type="curve" smooth="yes"/>
      <point x="352" y="527"/>
      <point x="390" y="472"/>
      <point x="390" y="384" type="curve" smooth="yes"/>
      <point x="390" y="233"/>
      <point x="311" y="124"/>
      <point x="207" y="124" type="curve" smooth="yes"/>
      <point x="154" y="124"/>
      <point x="118" y="150"/>
      <point x="93" y="183" type="curve"/>
    </contour>
  </outline>
</glyph>
<glyph name="Em" format="1">
  <advance width="754"/>
  <outline>
    <component base="M"/>
    <contour>
      <point x="454.0" y="682.0" type="move" name="aboveUC"/>
    </contour>
    <contour>
      <point x="334.0" y="-30.0" type="move" name="belowLC"/>
    </contour>
  </outline>
</glyph>
<glyph name="Es" format="1">
  <advance width="574"/>
  <outline>
    <component base="C"/>
    <contour>
      <point x="450.0" y="682.0" type="move" name="aboveUC"/>
    </contour>
    <contour>
      <point x="288.0" y="-22.0" type="move" name="belowLC"/>
    </contour>
    <contour>
      <point x="294.0" y="0.0" type="move" name="baseLC"/>
    </contour>
  </outline>
</glyph>
<glyph name="H" format="1">
  <advance width="664"/>
  <outline>
    <contour>
      <point x="26" y="0" type="line"/>
      <point x="186" y="0" type="line"/>
      <point x="238" y="266" type="line"/>
      <point x="432" y="266" type="line"/>
      <point x="378" y="0" type="line"/>
      <point x="538" y="0" type="line"/>
      <point x="668" y="650" type="line"/>
      <point x="508" y="650" type="line"/>
      <point x="460" y="406" type="line"/>
      <point x="266" y="406" type="line"/>
      <point x="316" y="650" type="line"/>
      <point x="156" y="650" type="line"/>
    </contour>
    <contour>
      <point x="420" y="682" type="move" name="aboveUC"/>
    </contour>
    <contour>
      <point x="290" y="-22" type="move" name="belowLC"/>
    </contour>
  </outline>
</glyph>
<glyph name="Hbar" format="1">
  <advance width="664"/>
  <outline>
    <contour>
      <point x="82.0" y="558.0" type="line"/>
      <point x="68.0" y="488.0" type="line"/>
      <point x="736.0" y="488.0" type="line"/>
      <point x="750.0" y="564.0" type="line"/>
      <point x="156.0" y="564.0" type="line"/>
    </contour>
    <component base="H"/>
  </outline>
</glyph>
<glyph name="I.alt" format="1">
  <advance width="382"/>
  <outline>
    <contour>
      <point x="-6" y="0" type="line"/>
      <point x="286" y="0" type="line"/>
      <point x="314" y="134" type="line"/>
      <point x="246" y="134" type="line"/>
      <point x="324" y="516" type="line"/>
      <point x="388" y="516" type="line"/>
      <point x="416" y="650" type="line"/>
      <point x="126" y="650" type="line"/>
      <point x="98" y="516" type="line"/>
      <point x="164" y="516" type="line"/>
      <point x="86" y="134" type="line"/>
      <point x="22" y="134" type="line"/>
    </contour>
    <contour>
      <point x="284" y="682" type="move" name="aboveUC"/>
    </contour>
    <contour>
      <point x="146" y="-22" type="move" name="belowLC"/>
    </contour>
    <contour>
      <point x="138" y="0" type="move" name="ogonekUC"/>
    </contour>
  </outline>
</glyph>
<glyph name="Icyr" format="1">
  <advance width="654"/>
  <outline>
    <contour>
      <point x="658" y="650" type="line"/>
      <point x="488" y="650" type="line"/>
      <point x="288" y="344" type="line"/>
      <point x="258" y="296"/>
      <point x="230" y="248"/>
      <point x="200" y="196" type="curve"/>
      <point x="196" y="196" type="line"/>
      <point x="218" y="266"/>
      <point x="248" y="360"/>
      <point x="264" y="438" type="curve" smooth="yes"/>
      <point x="306" y="650" type="line"/>
      <point x="156" y="650" type="line"/>
      <point x="26" y="0" type="line"/>
      <point x="196" y="0" type="line"/>
      <point x="396" y="306" type="line"/>
      <point x="426" y="354"/>
      <point x="454" y="402"/>
      <point x="484" y="454" type="curve"/>
      <point x="488" y="454" type="line"/>
      <point x="466" y="380"/>
      <point x="435" y="290"/>
      <point x="420" y="212" type="curve" smooth="yes"/>
      <point x="378" y="0" type="line"/>
      <point x="528" y="0" type="line"/>
    </contour>
    <contour>
      <point x="432.0" y="682.0" type="move" name="aboveUC"/>
    </contour>
  </outline>
</glyph>
<glyph name="J" format="1">
  <advance width="504"/>
  <outline>
    <contour>
      <point x="182" y="-12" type="curve" smooth="yes"/>
      <point x="330" y="-12"/>
      <point x="402" y="92"/>
      <point x="426" y="211" type="curve" smooth="yes"/>
      <point x="514" y="650" type="line"/>
      <point x="354" y="650" type="line"/>
      <point x="272" y="239" type="line" smooth="yes"/>
      <point x="256" y="160"/>
      <point x="228" y="126"/>
      <point x="182" y="126" type="curve" smooth="yes"/>
      <point x="140" y="126"/>
      <point x="106" y="156"/>
      <point x="86" y="184" type="curve"/>
      <point x="-10" y="86" type="line"/>
      <point x="32" y="22"/>
      <point x="108" y="-12"/>
    </contour>
    <contour>
      <point x="444" y="682" type="move" name="aboveUC"/>
    </contour>
    <contour>
      <point x="168" y="-30" type="move" name="belowLC"/>
    </contour>
  </outline>
</glyph>
<glyph name="K" format="1">
  <advance width="622"/>
  <outline>
    <contour>
      <point x="26" y="0" type="line"/>
      <point x="186" y="0" type="line"/>
      <point x="222" y="180" type="line"/>
      <point x="306" y="276" type="line"/>
      <point x="402" y="0" type="line"/>
      <point x="568" y="0" type="line"/>
      <point x="424" y="376" type="line"/>
      <point x="658" y="650" type="line"/>
      <point x="484" y="650" type="line"/>
      <point x="271" y="404" type="line"/>
      <point x="267" y="404" type="line"/>
      <point x="316" y="650" type="line"/>
      <point x="156" y="650" type="line"/>
    </contour>
    <contour>
      <point x="430" y="682" type="move" name="aboveUC"/>
    </contour>
    <contour>
      <point x="298" y="-22" type="move" name="belowLC"/>
    </contour>
  </outline>
</glyph>
<glyph name="L" format="1">
  <advance width="514"/>
  <outline>
    <contour>
      <point x="26" y="0" type="line"/>
      <point x="422" y="0" type="line"/>
      <point x="448" y="134" type="line"/>
      <point x="212" y="134" type="line"/>
      <point x="316" y="650" type="line"/>
      <point x="156" y="650" type="line"/>
    </contour>
    <contour>
      <point x="266" y="682" type="move" name="aboveUC"/>
    </contour>
    <contour>
      <point x="240" y="-22" type="move" name="belowLC"/>
    </contour>
  </outline>
</glyph>
<glyph name="Lje" format="1">
  <advance width="934"/>
  <outline>
    <contour>
      <point x="374" y="0" type="line"/>
      <point x="600" y="0" type="line" smooth="yes"/>
      <point x="752" y="0"/>
      <point x="890" y="69"/>
      <point x="890" y="246" type="curve" smooth="yes"/>
      <point x="890" y="350"/>
      <point x="814" y="420"/>
      <point x="678" y="420" type="curve" smooth="yes"/>
      <point x="618" y="420" type="line"/>
      <point x="664" y="650" type="line"/>
      <point x="504" y="650" type="line"/>
    </contour>
    <contour>
      <point x="558" y="126" type="line"/>
      <point x="592" y="294" type="line"/>
      <point x="644" y="294" type="line" smooth="yes"/>
      <point x="704" y="294"/>
      <point x="732" y="272"/>
      <point x="732" y="222" type="curve" smooth="yes"/>
      <point x="732" y="166"/>
      <point x="692" y="126"/>
      <point x="612" y="126" type="curve" smooth="yes"/>
    </contour>
    <contour>
      <point x="-44" y="8" type="line"/>
      <point x="-24" y="-2"/>
      <point x="12" y="-12"/>
      <point x="58" y="-12" type="curve" smooth="yes"/>
      <point x="150" y="-12"/>
      <point x="228" y="38"/>
      <point x="284" y="184" type="curve" smooth="yes"/>
      <point x="310" y="252"/>
      <point x="334" y="356"/>
      <point x="348" y="430" type="curve" smooth="yes"/>
      <point x="364" y="516" type="line"/>
      <point x="478" y="516" type="line"/>
      <point x="374" y="0" type="line"/>
      <point x="524" y="0" type="line"/>
      <point x="654" y="650" type="line"/>
      <point x="246" y="650" type="line"/>
      <point x="202" y="426" type="line" smooth="yes"/>
      <point x="190" y="364"/>
      <point x="168" y="284"/>
      <point x="144" y="226" type="curve" smooth="yes"/>
      <point x="114" y="154"/>
      <point x="86" y="136"/>
      <point x="50" y="136" type="curve" smooth="yes"/>
      <point x="32" y="136"/>
      <point x="20" y="142"/>
      <point x="12" y="146" type="curve"/>
    </contour>
  </outline>
</glyph>
<glyph name="Lslash" format="1">
  <advance width="514"/>
  <outline>
    <contour>
      <point x="-8" y="154" type="line"/>
      <point x="82" y="200" type="line"/>
      <point x="226" y="265" type="line"/>
      <point x="422" y="366" type="line"/>
      <point x="448" y="498" type="line"/>
      <point x="252" y="397" type="line"/>
      <point x="108" y="332" type="line"/>
      <point x="18" y="286" type="line"/>
    </contour>
    <component base="L"/>
  </outline>
</glyph>
<glyph name="O" format="1">
  <advance width="670"/>
  <outline>
    <contour>
      <point x="308" y="-12" type="curve" smooth="yes"/>
      <point x="480" y="-12"/>
      <point x="644" y="144"/>
      <point x="644" y="386" type="curve" smooth="yes"/>
      <point x="644" y="562"/>
      <point x="542" y="662"/>
      <point x="392" y="662" type="curve" smooth="yes"/>
      <point x="220" y="662"/>
      <point x="56" y="506"/>
      <point x="56" y="264" type="curve" smooth="yes"/>
      <point x="56" y="88"/>
      <point x="158" y="-12"/>
    </contour>
    <contour>
      <point x="384" y="524" type="curve" smooth="yes"/>
      <point x="444" y="524"/>
      <point x="480" y="470"/>
      <point x="480" y="376" type="curve" smooth="yes"/>
      <point x="480" y="226"/>
      <point x="390" y="126"/>
      <point x="316" y="126" type="curve" smooth="yes"/>
      <point x="256" y="126"/>
      <point x="220" y="180"/>
      <point x="220" y="274" type="curve" smooth="yes"/>
      <point x="220" y="424"/>
      <point x="310" y="524"/>
    </contour>
    <contour>
      <point x="434" y="682" type="move" name="aboveUC"/>
    </contour>
    <contour>
      <point x="298" y="-22" type="move" name="belowLC"/>
    </contour>
    <contour>
      <point x="304" y="0" type="move" name="ogonekUC"/>
    </contour>
    <contour>
      <point x="534" y="644" type="move" name="hornLC"/>
    </contour>
  </outline>
</glyph>
<glyph name="Ohorn" format="1">
  <advance width="670"/>
  <outline>
    <contour>
      <point x="582" y="742" type="line"/>
      <point x="587" y="730"/>
      <point x="590" y="716"/>
      <point x="590" y="704" type="curve" smooth="yes"/>
      <point x="590" y="672"/>
      <point x="564" y="639"/>
      <point x="511" y="633" type="curve"/>
      <point x="579" y="579" type="line"/>
      <point x="665" y="595"/>
      <point x="714" y="646"/>
      <point x="714" y="712" type="curve" smooth="yes"/>
      <point x="714" y="734"/>
      <point x="710" y="756"/>
      <point x="700" y="778" type="curve"/>
    </contour>
    <component base="O"/>
    <contour>
      <point x="420" y="682" type="move" name="aboveUC"/>
    </contour>
    <contour>
      <point x="304" y="-22" type="move" name="belowLC"/>
    </contour>
  </outline>
</glyph>
<glyph name="Omega.math" format="1">
  <advance width="712"/>
  <outline>
    <contour>
      <point x="-8" y="0" type="line"/>
      <point x="268" y="0" type="line"/>
      <point x="288" y="104" type="line"/>
      <point x="250" y="148"/>
      <point x="230" y="212"/>
      <point x="230" y="282" type="curve" smooth="yes"/>
      <point x="230" y="428"/>
      <point x="306" y="524"/>
      <point x="408" y="524" type="curve" smooth="yes"/>
      <point x="476" y="524"/>
      <point x="518" y="474"/>
      <point x="518" y="396" type="curve" smooth="yes"/>
      <point x="518" y="290"/>
      <point x="470" y="188"/>
      <point x="364" y="104" type="curve"/>
      <point x="344" y="0" type="line"/>
      <point x="622" y="0" type="line"/>
      <point x="646" y="128" type="line"/>
      <point x="542" y="128" type="line"/>
      <point x="542" y="132" type="line"/>
      <point x="598" y="182"/>
      <point x="686" y="282"/>
      <point x="686" y="426" type="curve" smooth="yes"/>
      <point x="686" y="574"/>
      <point x="588" y="662"/>
      <point x="434" y="662" type="curve" smooth="yes"/>
      <point x="228" y="662"/>
      <point x="72" y="518"/>
      <point x="72" y="308" type="curve" smooth="yes"/>
      <point x="72" y="230"/>
      <point x="98" y="164"/>
      <point x="120" y="132" type="curve"/>
      <point x="120" y="128" type="line"/>
      <point x="16" y="128" type="line"/>
    </contour>
  </outline>
</glyph>
<glyph name="Oslash" format="1">
  <advance width="670"/>
  <outline>
    <contour>
      <point x="58" y="-44" type="line"/>
      <point x="726" y="638" type="line"/>
      <point x="656" y="702" type="line"/>
      <point x="-12" y="20" type="line"/>
    </contour>
    <component base="O"/>
    <contour>
      <point x="440" y="682" type="move" name="aboveUC"/>
    </contour>
  </outline>
</glyph>
<glyph name="Q" format="1">
  <advance width="670"/>
  <outline>
    <contour>
      <point x="308" y="-12" type="curve" smooth="yes"/>
      <point x="480" y="-12"/>
      <point x="644" y="144"/>
      <point x="644" y="386" type="curve" smooth="yes"/>
      <point x="644" y="562"/>
      <point x="542" y="662"/>
      <point x="392" y="662" type="curve" smooth="yes"/>
      <point x="220" y="662"/>
      <point x="56" y="506"/>
      <point x="56" y="264" type="curve" smooth="yes"/>
      <point x="56" y="88"/>
      <point x="158" y="-12"/>
    </contour>
    <contour>
      <point x="384" y="524" type="curve" smooth="yes"/>
      <point x="444" y="524"/>
      <point x="480" y="470"/>
      <point x="480" y="376" type="curve" smooth="yes"/>
      <point x="480" y="226"/>
      <point x="390" y="126"/>
      <point x="316" y="126" type="curve" smooth="yes"/>
      <point x="256" y="126"/>
      <point x="220" y="180"/>
      <point x="220" y="274" type="curve" smooth="yes"/>
      <point x="220" y="424"/>
      <point x="310" y="524"/>
    </contour>
    <contour>
      <point x="194" y="32" type="line"/>
      <point x="242" y="-112"/>
      <point x="340" y="-182"/>
      <point x="492" y="-182" type="curve" smooth="yes"/>
      <point x="516" y="-182"/>
      <point x="554" y="-174"/>
      <point x="578" y="-164" type="curve"/>
      <point x="572" y="-44" type="line"/>
      <point x="550" y="-50"/>
      <point x="530" y="-54"/>
      <point x="502" y="-54" type="curve" smooth="yes"/>
      <point x="438" y="-54"/>
      <point x="372" y="-28"/>
      <point x="356" y="32" type="curve"/>
    </contour>
    <contour>
      <point x="434" y="682" type="move" name="aboveUC"/>
    </contour>
  </outline>
</glyph>
<glyph name="S" format="1">
  <advance width="538"/>
  <outline>
    <contour>
      <point x="2" y="113" type="line"/>
      <point x="70" y="22"/>
      <point x="157" y="-12"/>
      <point x="240" y="-12" type="curve" smooth="yes"/>
      <point x="396" y="-12"/>
      <point x="494" y="85"/>
      <point x="494" y="204" type="curve" smooth="yes"/>
      <point x="494" y="280"/>
      <point x="469" y="321"/>
      <point x="406" y="359" type="curve" smooth="yes"/>
      <point x="346" y="396" type="line" smooth="yes"/>
      <point x="294" y="429"/>
      <point x="266" y="441"/>
      <point x="266" y="468" type="curve" smooth="yes"/>
      <point x="266" y="499"/>
      <point x="289" y="524"/>
      <point x="335" y="524" type="curve" smooth="yes"/>
      <point x="377" y="524"/>
      <point x="410" y="500"/>
      <point x="443" y="467" type="curve"/>
      <point x="543" y="561" type="line"/>
      <point x="490" y="624"/>
      <point x="417" y="662"/>
      <point x="341" y="662" type="curve" smooth="yes"/>
      <point x="209" y="662"/>
      <point x="102" y="569"/>
      <point x="102" y="452" type="curve" smooth="yes"/>
      <point x="102" y="371"/>
      <point x="138" y="324"/>
      <point x="198" y="286" type="curve" smooth="yes"/>
      <point x="254" y="251" type="line" smooth="yes"/>
      <point x="299" y="223"/>
      <point x="328" y="210"/>
      <point x="328" y="181" type="curve" smooth="yes"/>
      <point x="328" y="145"/>
      <point x="298" y="124"/>
      <point x="252" y="124" type="curve" smooth="yes"/>
      <point x="202" y="124"/>
      <point x="150" y="156"/>
      <point x="116" y="203" type="curve"/>
    </contour>
    <contour>
      <point x="376" y="690" type="move" name="aboveUC"/>
    </contour>
    <contour>
      <point x="248" y="-30" type="move" name="belowLC"/>
    </contour>
    <contour>
      <point x="254" y="0" type="move" name="baseLC"/>
    </contour>
  </outline>
</glyph>
<glyph name="Tse" format="1">
  <advance width="674"/>
  <outline>
    <contour>
      <point x="433" y="0" type="line"/>
      <point x="458" y="0" type="line"/>
      <point x="424" y="-192" type="line"/>
      <point x="556" y="-192" type="line"/>
      <point x="616" y="22" type="line"/>
      <point x="638" y="132" type="line"/>
      <point x="459" y="132" type="line"/>
    </contour>
    <contour>
      <point x="664" y="650" type="line"/>
      <point x="504" y="650" type="line"/>
      <point x="402" y="134" type="line"/>
      <point x="212" y="134" type="line"/>
      <point x="316" y="650" type="line"/>
      <point x="156" y="650" type="line"/>
      <point x="26" y="0" type="line"/>
      <point x="534" y="0" type="line"/>
    </contour>
  </outline>
</glyph>
<glyph name="Ucyr" format="1">
  <advance width="541"/>
  <outline>
    <contour>
      <point x="18" y="12" type="line"/>
      <point x="37" y="0"/>
      <point x="70" y="-12"/>
      <point x="124" y="-12" type="curve" smooth="yes"/>
      <point x="216" y="-12"/>
      <point x="290" y="50"/>
      <point x="350" y="156" type="curve" smooth="yes"/>
      <point x="632" y="650" type="line"/>
      <point x="472" y="650" type="line"/>
      <point x="390" y="484" type="line"/>
      <point x="312" y="326" type="line"/>
      <point x="308" y="326" type="line"/>
      <point x="284" y="484" type="line"/>
      <point x="256" y="650" type="line"/>
      <point x="96" y="650" type="line"/>
      <point x="206" y="174" type="line"/>
      <point x="195" y="156" type="line" smooth="yes"/>
      <point x="184" y="138"/>
      <point x="157" y="126"/>
      <point x="126" y="126" type="curve" smooth="yes"/>
      <point x="104" y="126"/>
      <point x="86" y="130"/>
      <point x="72" y="138" type="curve"/>
    </contour>
    <contour>
      <point x="372.0" y="672.0" type="move" name="aboveUC"/>
    </contour>
  </outline>
</glyph>
<glyph name="Uhorn" format="1">
  <advance width="680"/>
  <outline>
    <contour>
      <point x="645" y="589" type="line"/>
      <point x="756" y="611"/>
      <point x="798" y="664"/>
      <point x="798" y="728" type="curve" smooth="yes"/>
      <point x="798" y="750"/>
      <point x="794" y="772"/>
      <point x="784" y="794" type="curve"/>
      <point x="666" y="758" type="line"/>
      <point x="671" y="746"/>
      <point x="674" y="732"/>
      <point x="674" y="720" type="curve" smooth="yes"/>
      <point x="674" y="688"/>
      <point x="648" y="656"/>
      <point x="600" y="650" type="curve"/>
    </contour>
    <component base="U"/>
    <contour>
      <point x="428" y="682" type="move" name="aboveUC"/>
    </contour>
    <contour>
      <point x="296" y="-22" type="move" name="belowLC"/>
    </contour>
  </outline>
</glyph>
<glyph name="X" format="1">
  <advance width="576"/>
  <outline>
    <contour>
      <point x="-36" y="0" type="line"/>
      <point x="134" y="0" type="line"/>
      <point x="210" y="126" type="line" smooth="yes"/>
      <point x="230" y="160"/>
      <point x="250" y="193"/>
      <point x="272" y="232" type="curve"/>
      <point x="276" y="232" type="line"/>
      <point x="284" y="193"/>
      <point x="292" y="160"/>
      <point x="300" y="126" type="curve" smooth="yes"/>
      <point x="328" y="0" type="line"/>
      <point x="506" y="0" type="line"/>
      <point x="400" y="328" type="line"/>
      <point x="626" y="650" type="line"/>
      <point x="456" y="650" type="line"/>
      <point x="392" y="536" type="line" smooth="yes"/>
      <point x="375" y="506"/>
      <point x="354" y="471"/>
      <point x="332" y="430" type="curve"/>
      <point x="328" y="430" type="line"/>
      <point x="319" y="471"/>
      <point x="312" y="506"/>
      <point x="306" y="536" type="curve" smooth="yes"/>
      <point x="282" y="650" type="line"/>
      <point x="104" y="650" type="line"/>
      <point x="202" y="334" type="line"/>
    </contour>
    <contour>
      <point x="386" y="682" type="move" name="aboveUC"/>
    </contour>
    <contour>
      <point x="290" y="-30" type="move" name="belowLC"/>
    </contour>
  </outline>
</glyph>
<glyph name="Yat" format="1">
  <advance width="648"/>
  <outline>
    <contour>
      <point x="72" y="465" type="line"/>
      <point x="508" y="465" type="line"/>
      <point x="530" y="580" type="line"/>
      <point x="94" y="580" type="line"/>
    </contour>
    <contour>
      <point x="88" y="0" type="line"/>
      <point x="314" y="0" type="line" smooth="yes"/>
      <point x="466" y="0"/>
      <point x="604" y="70"/>
      <point x="604" y="238" type="curve" smooth="yes"/>
      <point x="604" y="336"/>
      <point x="526" y="400"/>
      <point x="390" y="400" type="curve" smooth="yes"/>
      <point x="330" y="400" type="line"/>
      <point x="378" y="650" type="line"/>
      <point x="218" y="650" type="line"/>
    </contour>
    <contour>
      <point x="272" y="122" type="line"/>
      <point x="306" y="290" type="line"/>
      <point x="358" y="290" type="line" smooth="yes"/>
      <point x="418" y="290"/>
      <point x="446" y="268"/>
      <point x="446" y="218" type="curve" smooth="yes"/>
      <point x="446" y="162"/>
      <point x="406" y="122"/>
      <point x="326" y="122" type="curve" smooth="yes"/>
    </contour>
  </outline>
</glyph>
<glyph name="Zedescender" format="1">
  <advance width="544"/>
  <outline>
    <contour>
      <point x="214" y="0" type="line"/>
      <point x="176" y="-192" type="line"/>
      <point x="308" y="-192" type="line"/>
      <point x="362" y="0" type="line"/>
    </contour>
    <component base="Ze"/>
  </outline>
</glyph>
<glyph name="acutecmb" format="1">
  <advance width="0"/>
  <outline>
    <contour>
      <point x="24" y="574" type="line"/>
      <point x="144" y="574" type="line"/>
      <point x="298" y="726" type="line"/>
      <point x="140" y="726" type="line"/>
    </contour>
    <contour>
      <point x="114" y="522" type="move" name="_aboveLC"/>
    </contour>
  </outline>
</glyph>
<glyph name="acyr" format="1">
  <advance width="558"/>
  <outline>
    <component base="a"/>
    <contour>
      <point x="334.0" y="522.0" type="move" name="aboveLC"/>
    </contour>
    <contour>
      <point x="250.0" y="-22.0" type="move" name="belowLC"/>
    </contour>
  </outline>
</glyph>
<glyph name="aogonek.alt" format="1">
  <advance width="522"/>
  <outline>
    <contour>
      <point x="285" y="0" type="line"/>
      <point x="258" y="-20"/>
      <point x="196" y="-70"/>
      <point x="196" y="-136" type="curve" smooth="yes"/>
      <point x="196" y="-186"/>
      <point x="234" y="-212"/>
      <point x="286" y="-212" type="curve" smooth="yes"/>
      <point x="322" y="-212"/>
      <point x="370" y="-194"/>
      <point x="400" y="-172" type="curve"/>
      <point x="374" y="-108" type="line"/>
      <point x="364" y="-114"/>
      <point x="354" y="-118"/>
      <point x="344" y="-118" type="curve" smooth="yes"/>
      <point x="326" y="-118"/>
      <point x="310" y="-108"/>
      <point x="310" y="-90" type="curve" smooth="yes"/>
      <point x="310" y="-50"/>
      <point x="350" y="-16"/>
      <point x="414" y="0" type="curve"/>
      <point x="468" y="270" type="line" smooth="yes"/>
      <point x="474" y="298"/>
      <point x="476" y="322"/>
      <point x="476" y="344" type="curve" smooth="yes"/>
      <point x="476" y="456"/>
      <point x="410" y="512"/>
      <point x="296" y="512" type="curve" smooth="yes"/>
      <point x="228" y="512"/>
      <point x="156" y="492"/>
      <point x="94" y="462" type="curve"/>
      <point x="142" y="352" type="line"/>
      <point x="190" y="376"/>
      <point x="220" y="388"/>
      <point x="260" y="388" type="curve" smooth="yes"/>
      <point x="294" y="388"/>
      <point x="318" y="372"/>
      <point x="318" y="328" type="curve" smooth="yes"/>
      <point x="318" y="324"/>
      <point x="318" y="320"/>
      <point x="316" y="314" type="curve"/>
      <point x="154" y="310"/>
      <point x="18" y="262"/>
      <point x="18" y="114" type="curve" smooth="yes"/>
      <point x="18" y="38"/>
      <point x="74" y="-12"/>
      <point x="144" y="-12" type="curve" smooth="yes"/>
      <point x="194" y="-12"/>
      <point x="246" y="16"/>
      <point x="278" y="48" type="curve"/>
      <point x="282" y="48" type="line"/>
    </contour>
    <contour>
      <point x="298" y="218" type="curve"/>
      <point x="282" y="142" type="line"/>
      <point x="262" y="124"/>
      <point x="244" y="110"/>
      <point x="220" y="110" type="curve" smooth="yes"/>
      <point x="192" y="110"/>
      <point x="174" y="124"/>
      <point x="174" y="146" type="curve" smooth="yes"/>
      <point x="174" y="184"/>
      <point x="208" y="216"/>
    </contour>
    <contour>
      <point x="314" y="522" type="move" name="aboveLC"/>
    </contour>
  </outline>
</glyph>
<glyph name="arrowdown" format="1">
  <advance width="592"/>
  <outline>
    <contour>
      <point x="298" y="-28" type="line"/>
      <point x="566" y="240" type="line"/>
      <point x="482" y="314" type="line"/>
      <point x="360" y="184" type="line"/>
      <point x="360" y="530" type="line"/>
      <point x="232" y="530" type="line"/>
      <point x="232" y="184" type="line"/>
      <point x="110" y="314" type="line"/>
      <point x="26" y="240" type="line"/>
      <point x="294" y="-28" type="line"/>
    </contour>
  </outline>
</glyph>
<glyph name="arrowup" format="1">
  <advance width="592"/>
  <outline>
    <contour>
      <point x="294" y="530" type="line"/>
      <point x="26" y="262" type="line"/>
      <point x="110" y="188" type="line"/>
      <point x="232" y="318" type="line"/>
      <point x="232" y="-28" type="line"/>
      <point x="360" y="-28" type="line"/>
      <point x="360" y="318" type="line"/>
      <point x="482" y="188" type="line"/>
      <point x="566" y="262" type="line"/>
      <point x="298" y="530" type="line"/>
    </contour>
  </outline>
</glyph>
<glyph name="b" format="1">
  <advance width="560"/>
  <outline>
    <contour>
      <point x="140" y="0" type="line"/>
      <point x="162" y="50" type="line"/>
      <point x="164" y="50" type="line"/>
      <point x="182" y="12"/>
      <point x="222" y="-12"/>
      <point x="264" y="-12" type="curve" smooth="yes"/>
      <point x="402" y="-12"/>
      <point x="530" y="138"/>
      <point x="530" y="328" type="curve" smooth="yes"/>
      <point x="530" y="446"/>
      <point x="478" y="512"/>
      <point x="390" y="512" type="curve" smooth="yes"/>
      <point x="344" y="512"/>
      <point x="296" y="492"/>
      <point x="254" y="458" type="curve"/>
      <point x="252" y="458" type="line"/>
      <point x="278" y="550" type="line"/>
      <point x="308" y="696" type="line"/>
      <point x="148" y="696" type="line"/>
      <point x="8" y="0" type="line"/>
    </contour>
    <contour>
      <point x="318" y="382" type="curve" smooth="yes"/>
      <point x="346" y="382"/>
      <point x="364" y="360"/>
      <point x="364" y="308" type="curve" smooth="yes"/>
      <point x="364" y="196"/>
      <point x="310" y="118"/>
      <point x="252" y="118" type="curve" smooth="yes"/>
      <point x="232" y="118"/>
      <point x="210" y="130"/>
      <point x="200" y="156" type="curve"/>
      <point x="234" y="326" type="line"/>
      <point x="258" y="370"/>
      <point x="292" y="382"/>
    </contour>
    <contour>
      <point x="238" y="730" type="move" name="aboveLC"/>
    </contour>
    <contour>
      <point x="244" y="-22" type="move" name="belowLC"/>
    </contour>
  </outline>
</glyph>
<glyph name="bardbl" format="1">
  <advance width="449"/>
  <outline>
    <contour>
      <point x="-14" y="-250" type="line"/>
      <point x="87" y="-250" type="line"/>
      <point x="287" y="750" type="line"/>
      <point x="186" y="750" type="line"/>
    </contour>
    <contour>
      <point x="172" y="-250" type="line"/>
      <point x="274" y="-250" type="line"/>
      <point x="473" y="750" type="line"/>
      <point x="372" y="750" type="line"/>
    </contour>
  </outline>
</glyph>
<glyph name="bracketleft" format="1">
  <advance width="344"/>
  <outline>
    <contour>
      <point x="-8" y="-152" type="line"/>
      <point x="204" y="-152" type="line"/>
      <point x="222" y="-68" type="line"/>
      <point x="128" y="-68" type="line"/>
      <point x="266" y="624" type="line"/>
      <point x="360" y="624" type="line"/>
      <point x="376" y="708" type="line"/>
      <point x="164" y="708" type="line"/>
    </contour>
  </outline>
</glyph>
<glyph name="brackhalfbotleft" format="1">
  <advance width="344"/>
  <outline>
    <contour>
      <point x="-8" y="-152" type="line"/>
      <point x="204" y="-152" type="line"/>
      <point x="222" y="-68" type="line"/>
      <point x="128" y="-68" type="line"/>
      <point x="198" y="278" type="line"/>
      <point x="78" y="278" type="line"/>
    </contour>
  </outline>
</glyph>
<glyph name="brackhalfbotright" format="1">
  <advance width="346"/>
  <outline>
    <contour>
      <point x="-22" y="-152" type="line"/>
      <point x="190" y="-152" type="line"/>
      <point x="276" y="278" type="line"/>
      <point x="156" y="278" type="line"/>
      <point x="88" y="-68" type="line"/>
      <point x="-6" y="-68" type="line"/>
    </contour>
  </outline>
</glyph>
<glyph name="brackhalftopleft" format="1">
  <advance width="344"/>
  <outline>
    <contour>
      <point x="198" y="278" type="line"/>
      <point x="266" y="624" type="line"/>
      <point x="360" y="624" type="line"/>
      <point x="376" y="708" type="line"/>
      <point x="164" y="708" type="line"/>
      <point x="78" y="278" type="line"/>
    </contour>
  </outline>
</glyph>
<glyph name="brevecmb.cyr" format="1">
  <advance width="0"/>
  <outline>
    <contour>
      <point x="112" y="574" type="curve" smooth="yes"/>
      <point x="216" y="574"/>
      <point x="287" y="637"/>
      <point x="304" y="715" type="curve"/>
      <point x="190" y="715" type="line"/>
      <point x="178" y="675"/>
      <point x="160" y="658"/>
      <point x="128" y="658" type="curve" smooth="yes"/>
      <point x="97" y="658"/>
      <point x="85" y="675"/>
      <point x="90" y="715" type="curve"/>
      <point x="-24" y="715" type="line"/>
      <point x="-38" y="637"/>
      <point x="8" y="574"/>
    </contour>
    <contour>
      <point x="114.0" y="522.0" type="move" name="_aboveLC"/>
    </contour>
  </outline>
</glyph>
<glyph name="brevegrave.cap" format="1">
  <advance width="0"/>
  <outline>
    <contour>
      <point x="124" y="694" type="curve" smooth="yes"/>
      <point x="226" y="694"/>
      <point x="292" y="738"/>
      <point x="318" y="834" type="curve"/>
      <point x="240" y="850" type="line"/>
      <point x="221" y="804"/>
      <point x="185" y="782"/>
      <point x="140" y="782" type="curve" smooth="yes"/>
      <point x="95" y="782"/>
      <point x="67" y="804"/>
      <point x="64" y="850" type="curve"/>
      <point x="-22" y="834" type="line"/>
      <point x="-28.0" y="738.0"/>
      <point x="22.0" y="694.0"/>
    </contour>
    <contour>
      <point x="128" y="806" type="line"/>
      <point x="222" y="852" type="line"/>
      <point x="152" y="1002" type="line"/>
      <point x="34" y="948" type="line"/>
    </contour>
    <contour>
      <point x="136" y="682" type="move" name="_aboveUC"/>
    </contour>
  </outline>
</glyph>
<glyph name="brevegrave" format="1">
  <advance width="0"/>
  <outline>
    <contour>
      <point x="128" y="705" type="line"/>
      <point x="211" y="748" type="line"/>
      <point x="142" y="903" type="line"/>
      <point x="29" y="838" type="line"/>
    </contour>
    <contour>
      <point x="114" y="572" type="curve" smooth="yes"/>
      <point x="232" y="572"/>
      <point x="298" y="638"/>
      <point x="316" y="732" type="curve"/>
      <point x="234" y="748" type="line"/>
      <point x="219" y="702"/>
      <point x="186" y="668"/>
      <point x="132" y="668" type="curve" smooth="yes"/>
      <point x="78" y="668"/>
      <point x="57" y="702"/>
      <point x="58" y="748" type="curve"/>
      <point x="-32" y="732" type="line"/>
      <point x="-46" y="638"/>
      <point x="-3" y="572"/>
    </contour>
    <contour>
      <point x="114" y="522" type="move" name="_aboveLC"/>
    </contour>
  </outline>
</glyph>
<glyph name="brevehoi.cap" format="1">
  <advance width="0"/>
  <outline>
    <contour>
      <point x="124" y="694" type="curve" smooth="yes"/>
      <point x="226" y="694"/>
      <point x="292" y="738"/>
      <point x="318" y="834" type="curve"/>
      <point x="240" y="850" type="line"/>
      <point x="221" y="804"/>
      <point x="185" y="782"/>
      <point x="140" y="782" type="curve" smooth="yes"/>
      <point x="95" y="782"/>
      <point x="67" y="804"/>
      <point x="64" y="850" type="curve"/>
      <point x="-22" y="834" type="line"/>
      <point x="-28.0" y="738.0"/>
      <point x="22.0" y="694.0"/>
    </contour>
    <contour>
      <point x="97" y="813" type="line"/>
      <point x="169" y="810"/>
      <point x="226" y="829"/>
      <point x="236" y="891" type="curve" smooth="yes"/>
      <point x="244" y="934"/>
      <point x="216" y="973"/>
      <point x="96" y="987" type="curve"/>
      <point x="68" y="922" type="line"/>
      <point x="117" y="913"/>
      <point x="129" y="902"/>
      <point x="126" y="886" type="curve" smooth="yes"/>
      <point x="124" y="870"/>
      <point x="110" y="867"/>
      <point x="94" y="865" type="curve"/>
    </contour>
    <contour>
      <point x="135" y="682" type="move" name="_aboveUC"/>
    </contour>
  </outline>
</glyph>
<glyph name="brevetilde" format="1">
  <advance width="0"/>
  <outline>
    <contour>
      <point x="64" y="574" type="curve" smooth="yes"/>
      <point x="156" y="574"/>
      <point x="210" y="630"/>
      <point x="226" y="696" type="curve"/>
      <point x="156" y="696" type="line"/>
      <point x="146" y="670"/>
      <point x="120" y="648"/>
      <point x="80" y="648" type="curve" smooth="yes"/>
      <point x="38" y="648"/>
      <point x="22" y="670"/>
      <point x="20" y="696" type="curve"/>
      <point x="-48" y="696" type="line"/>
      <point x="-60" y="630"/>
      <point x="-28" y="574"/>
    </contour>
    <contour>
      <point x="16" y="722" type="line"/>
      <point x="26" y="748"/>
      <point x="40" y="758"/>
      <point x="54" y="758" type="curve" smooth="yes"/>
      <point x="80" y="758"/>
      <point x="102" y="722"/>
      <point x="146" y="722" type="curve" smooth="yes"/>
      <point x="188" y="722"/>
      <point x="234" y="758"/>
      <point x="260" y="840" type="curve"/>
      <point x="192" y="840" type="line"/>
      <point x="182" y="814"/>
      <point x="166" y="804"/>
      <point x="152" y="804" type="curve" smooth="yes"/>
      <point x="126" y="804"/>
      <point x="104" y="840"/>
      <point x="60" y="840" type="curve" smooth="yes"/>
      <point x="18" y="840"/>
      <point x="-28" y="804"/>
      <point x="-54" y="722" type="curve"/>
    </contour>
    <contour>
      <point x="66" y="522" type="move" name="_aboveLC"/>
    </contour>
  </outline>
</glyph>
<glyph name="brokenbar" format="1">
  <advance width="264"/>
  <outline>
    <contour>
      <point x="86" y="316" type="line"/>
      <point x="184" y="316" type="line"/>
      <point x="184" y="750" type="line"/>
      <point x="86" y="750" type="line"/>
    </contour>
    <contour>
      <point x="86" y="-250" type="line"/>
      <point x="184" y="-250" type="line"/>
      <point x="184" y="202" type="line"/>
      <point x="86" y="202" type="line"/>
    </contour>
  </outline>
</glyph>
<glyph name="caron.alt" format="1">
  <advance width="0"/>
  <outline>
    <contour>
      <point x="84" y="548" type="line"/>
      <point x="140" y="700" type="line"/>
      <point x="156" y="774" type="line"/>
      <point x="56" y="774" type="line"/>
      <point x="16" y="548" type="line"/>
    </contour>
  </outline>
</glyph>
<glyph name="caroncmb.cap" format="1">
  <advance width="0"/>
  <outline>
    <contour>
      <point x="24" y="700" type="line"/>
      <point x="212" y="700" type="line"/>
      <point x="316" y="810" type="line"/>
      <point x="250" y="854" type="line"/>
      <point x="134" y="774" type="line"/>
      <point x="130" y="774" type="line"/>
      <point x="42" y="854" type="line"/>
      <point x="-40" y="810" type="line"/>
    </contour>
    <contour>
      <point x="136" y="682" type="move" name="_aboveUC"/>
    </contour>
  </outline>
</glyph>
<glyph name="caroncmb" format="1">
  <advance width="0"/>
  <outline>
    <contour>
      <point x="16" y="578" type="line"/>
      <point x="192" y="578" type="line"/>
      <point x="320" y="706" type="line"/>
      <point x="266" y="766" type="line"/>
      <point x="124" y="682" type="line"/>
      <point x="120" y="682" type="line"/>
      <point x="6" y="766" type="line"/>
      <point x="-68" y="706" type="line"/>
    </contour>
    <contour>
      <point x="114" y="522" type="move" name="_aboveLC"/>
    </contour>
  </outline>
</glyph>
<glyph name="cedillacmb" format="1">
  <advance width="0"/>
  <outline>
    <contour>
      <point x="-98" y="-76" type="line"/>
      <point x="-62" y="-86"/>
      <point x="-54" y="-100"/>
      <point x="-54" y="-114" type="curve" smooth="yes"/>
      <point x="-54" y="-142"/>
      <point x="-94" y="-156"/>
      <point x="-142" y="-160" type="curve"/>
      <point x="-138" y="-222" type="line"/>
      <point x="-32" y="-218"/>
      <point x="64" y="-184"/>
      <point x="64" y="-102" type="curve" smooth="yes"/>
      <point x="64" y="-70"/>
      <point x="46" y="-52"/>
      <point x="20" y="-42" type="curve"/>
      <point x="48" y="4" type="line"/>
      <point x="-44" y="4" type="line"/>
    </contour>
    <contour>
      <point x="0" y="0" type="move" name="_baseLC"/>
    </contour>
  </outline>
</glyph>
<glyph name="ceilingleft" format="1">
  <advance width="344"/>
  <outline>
    <contour>
      <point x="142" y="0" type="line"/>
      <point x="262" y="608" type="line"/>
      <point x="356" y="608" type="line"/>
      <point x="372" y="692" type="line"/>
      <point x="160" y="692" type="line"/>
      <point x="22" y="0" type="line"/>
    </contour>
  </outline>
</glyph>
<glyph name="ceilingright" format="1">
  <advance width="346"/>
  <outline>
    <contour>
      <point x="222" y="0" type="line"/>
      <point x="358" y="692" type="line"/>
      <point x="146" y="692" type="line"/>
      <point x="128" y="608" type="line"/>
      <point x="222" y="608" type="line"/>
      <point x="102" y="0" type="line"/>
    </contour>
  </outline>
</glyph>
<glyph name="che" format="1">
  <advance width="552"/>
  <outline>
    <contour>
      <point x="528" y="500" type="line"/>
      <point x="368" y="500" type="line"/>
      <point x="338" y="338" type="line"/>
      <point x="306" y="300"/>
      <point x="282" y="282"/>
      <point x="256" y="282" type="curve" smooth="yes"/>
      <point x="230" y="282"/>
      <point x="214" y="296"/>
      <point x="214" y="324" type="curve" smooth="yes"/>
      <point x="214" y="336"/>
      <point x="218" y="350"/>
      <point x="222" y="368" type="curve" smooth="yes"/>
      <point x="248" y="500" type="line"/>
      <point x="88" y="500" type="line"/>
      <point x="58" y="348" type="line" smooth="yes"/>
      <point x="53" y="324"/>
      <point x="50" y="298"/>
      <point x="50" y="276" type="curve" smooth="yes"/>
      <point x="50" y="190"/>
      <point x="86" y="146"/>
      <point x="168" y="146" type="curve" smooth="yes"/>
      <point x="228" y="146"/>
      <point x="286" y="182"/>
      <point x="328" y="222" type="curve"/>
      <point x="332" y="222" type="line"/>
      <point x="270" y="0" type="line"/>
      <point x="430" y="0" type="line"/>
    </contour>
  </outline>
</glyph>
<glyph name="check" format="1">
  <advance width="572"/>
  <outline>
    <contour>
      <point x="228" y="-3" type="line"/>
      <point x="364" y="289"/>
      <point x="524" y="483"/>
      <point x="672" y="605" type="curve"/>
      <point x="592" y="689" type="line"/>
      <point x="440" y="554"/>
      <point x="287" y="336"/>
      <point x="170" y="97" type="curve"/>
      <point x="166" y="97" type="line"/>
      <point x="151" y="179"/>
      <point x="132" y="252"/>
      <point x="98" y="340" type="curve"/>
      <point x="-15" y="281" type="line"/>
      <point x="34" y="181"/>
      <point x="60" y="93"/>
      <point x="78" y="-20" type="curve"/>
    </contour>
  </outline>
</glyph>
<glyph name="checkbox" format="1">
  <advance width="776"/>
  <outline>
    <contour>
      <point x="70" y="-10" type="line"/>
      <point x="640" y="-10" type="line"/>
      <point x="706" y="66" type="line"/>
      <point x="706" y="674" type="line"/>
      <point x="146" y="674" type="line"/>
      <point x="70" y="608" type="line"/>
    </contour>
    <contour>
      <point x="616" y="584" type="line"/>
      <point x="616" y="50" type="line"/>
      <point x="130" y="50" type="line"/>
      <point x="130" y="584" type="line"/>
    </contour>
  </outline>
</glyph>
<glyph name="checkedbox" format="1">
  <advance width="776"/>
  <outline>
    <contour>
      <point x="402" y="127" type="line"/>
      <point x="538" y="419"/>
      <point x="698" y="613"/>
      <point x="846" y="735" type="curve"/>
      <point x="766" y="819" type="line"/>
      <point x="614" y="684"/>
      <point x="461" y="466"/>
      <point x="344" y="227" type="curve"/>
      <point x="340" y="227" type="line"/>
      <point x="328" y="304"/>
      <point x="312" y="364"/>
      <point x="282" y="444" type="curve"/>
      <point x="169" y="385" type="line"/>
      <point x="214" y="292"/>
      <point x="236" y="214"/>
      <point x="252" y="110" type="curve"/>
    </contour>
    <component base="checkbox"/>
  </outline>
</glyph>
<glyph name="circumflexacute.cap" format="1">
  <advance width="0"/>
  <outline>
    <contour>
      <point x="263" y="768" type="line"/>
      <point x="351" y="768" type="line"/>
      <point x="463" y="890" type="line"/>
      <point x="343" y="890" type="line"/>
    </contour>
    <contour>
      <point x="-35" y="700" type="line"/>
      <point x="77" y="700" type="line"/>
      <point x="133" y="752" type="line"/>
      <point x="137" y="752" type="line"/>
      <point x="173" y="700" type="line"/>
      <point x="285" y="700" type="line"/>
      <point x="217" y="816" type="line"/>
      <point x="79" y="816" type="line"/>
    </contour>
    <contour>
      <point x="135" y="682" type="move" name="_aboveUC"/>
    </contour>
  </outline>
</glyph>
<glyph name="circumflexacute" format="1">
  <advance width="0"/>
  <outline>
    <contour>
      <point x="12" y="564" type="line"/>
      <point x="126" y="626" type="line"/>
      <point x="130" y="626" type="line"/>
      <point x="220" y="564" type="line"/>
      <point x="286" y="624" type="line"/>
      <point x="212" y="716" type="line"/>
      <point x="76" y="716" type="line"/>
      <point x="-30" y="624" type="line"/>
    </contour>
    <contour>
      <point x="306" y="641" type="line"/>
      <point x="429" y="752" type="line"/>
      <point x="350" y="818" type="line"/>
      <point x="252" y="696" type="line"/>
    </contour>
    <contour>
      <point x="114" y="522" type="move" name="_aboveLC"/>
    </contour>
  </outline>
</glyph>
<glyph name="circumflexcmb.cap" format="1">
  <advance width="0"/>
  <outline>
    <contour>
      <point x="-50" y="700" type="line"/>
      <point x="76" y="700" type="line"/>
      <point x="134" y="760" type="line"/>
      <point x="136" y="760" type="line"/>
      <point x="174" y="700" type="line"/>
      <point x="290" y="700" type="line"/>
      <point x="222" y="822" type="line"/>
      <point x="66" y="822" type="line"/>
    </contour>
    <contour>
      <point x="136" y="682" type="move" name="_aboveUC"/>
    </contour>
  </outline>
</glyph>
<glyph name="circumflexcmb" format="1">
  <advance width="0"/>
  <outline>
    <contour>
      <point x="-42" y="574" type="line"/>
      <point x="68" y="574" type="line"/>
      <point x="130" y="650" type="line"/>
      <point x="134" y="650" type="line"/>
      <point x="166" y="574" type="line"/>
      <point x="268" y="574" type="line"/>
      <point x="206" y="726" type="line"/>
      <point x="80" y="726" type="line"/>
    </contour>
    <contour>
      <point x="114" y="522" type="move" name="_aboveLC"/>
    </contour>
    <contour>
      <point x="154" y="740" type="move" name="aboveLC"/>
    </contour>
  </outline>
</glyph>
<glyph name="circumflexgrave.cap" format="1">
  <advance width="0"/>
  <outline>
    <contour>
      <point x="351" y="890" type="line"/>
      <point x="231" y="890" type="line"/>
      <point x="293" y="768" type="line"/>
      <point x="383" y="768" type="line"/>
    </contour>
    <contour>
      <point x="-35" y="700" type="line"/>
      <point x="77" y="700" type="line"/>
      <point x="133" y="752" type="line"/>
      <point x="137" y="752" type="line"/>
      <point x="173" y="700" type="line"/>
      <point x="285" y="700" type="line"/>
      <point x="217" y="816" type="line"/>
      <point x="79" y="816" type="line"/>
    </contour>
    <contour>
      <point x="135" y="682" type="move" name="_aboveUC"/>
    </contour>
  </outline>
</glyph>
<glyph name="circumflexhoi.cap" format="1">
  <advance width="0"/>
  <outline>
    <contour>
      <point x="28" y="680" type="line"/>
      <point x="132" y="752" type="line"/>
      <point x="136" y="752" type="line"/>
      <point x="216" y="680" type="line"/>
      <point x="290" y="724" type="line"/>
      <point x="220" y="828" type="line"/>
      <point x="72" y="828" type="line"/>
      <point x="-34" y="724" type="line"/>
    </contour>
    <contour>
      <point x="265" y="753" type="line"/>
      <point x="337" y="750"/>
      <point x="394" y="769"/>
      <point x="404" y="831" type="curve" smooth="yes"/>
      <point x="412" y="874"/>
      <point x="384" y="913"/>
      <point x="264" y="927" type="curve"/>
      <point x="236" y="862" type="line"/>
      <point x="285" y="853"/>
      <point x="297" y="842"/>
      <point x="294" y="826" type="curve" smooth="yes"/>
      <point x="292" y="810"/>
      <point x="278" y="807"/>
      <point x="262" y="805" type="curve"/>
    </contour>
    <contour>
      <point x="135" y="682" type="move" name="_aboveUC"/>
    </contour>
  </outline>
</glyph>
<glyph name="circumflexhoi" format="1">
  <advance width="0"/>
  <outline>
    <contour>
      <point x="12" y="564" type="line"/>
      <point x="126" y="626" type="line"/>
      <point x="130" y="626" type="line"/>
      <point x="220" y="564" type="line"/>
      <point x="286" y="624" type="line"/>
      <point x="212" y="716" type="line"/>
      <point x="76" y="716" type="line"/>
      <point x="-30" y="624" type="line"/>
    </contour>
    <contour>
      <point x="260" y="653" type="line"/>
      <point x="332" y="655"/>
      <point x="391" y="669"/>
      <point x="403" y="739" type="curve" smooth="yes"/>
      <point x="411" y="784"/>
      <point x="381" y="819"/>
      <point x="260" y="833" type="curve"/>
      <point x="232" y="766" type="line"/>
      <point x="282" y="757"/>
      <point x="294" y="746"/>
      <point x="290" y="730" type="curve" smooth="yes"/>
      <point x="288" y="715"/>
      <point x="276" y="711"/>
      <point x="260" y="709" type="curve"/>
    </contour>
    <contour>
      <point x="114" y="522" type="move" name="_aboveLC"/>
    </contour>
  </outline>
</glyph>
<glyph name="circumflextilde.cap" format="1">
  <advance width="0"/>
  <outline>
    <contour>
      <point x="-35" y="700" type="line"/>
      <point x="77" y="700" type="line"/>
      <point x="133" y="752" type="line"/>
      <point x="137" y="752" type="line"/>
      <point x="173" y="700" type="line"/>
      <point x="285" y="700" type="line"/>
      <point x="217" y="816" type="line"/>
      <point x="79" y="816" type="line"/>
    </contour>
    <contour>
      <point x="3" y="852" type="curve"/>
      <point x="73" y="852" type="line"/>
      <point x="83" y="876"/>
      <point x="99" y="888"/>
      <point x="115" y="888" type="curve" smooth="yes"/>
      <point x="141" y="888"/>
      <point x="165" y="852"/>
      <point x="209" y="852" type="curve" smooth="yes"/>
      <point x="251" y="852"/>
      <point x="299" y="886"/>
      <point x="325" y="970" type="curve"/>
      <point x="257" y="970" type="line"/>
      <point x="245" y="944"/>
      <point x="229" y="932"/>
      <point x="215" y="932" type="curve" smooth="yes"/>
      <point x="189" y="932"/>
      <point x="163" y="970"/>
      <point x="119" y="970" type="curve" smooth="yes"/>
      <point x="77" y="970"/>
      <point x="29" y="934"/>
    </contour>
    <contour>
      <point x="135" y="682" type="move" name="_aboveUC"/>
    </contour>
  </outline>
</glyph>
<glyph name="colonmonetary" format="1">
  <advance width="520"/>
  <outline>
    <contour>
      <point x="384" y="656" type="curve" smooth="yes"/>
      <point x="204" y="656"/>
      <point x="54" y="490"/>
      <point x="54" y="242" type="curve" smooth="yes"/>
      <point x="54" y="78"/>
      <point x="136" y="-12"/>
      <point x="272" y="-12" type="curve" smooth="yes"/>
      <point x="329" y="-12"/>
      <point x="398" y="6"/>
      <point x="472" y="66" type="curve"/>
      <point x="398" y="160" type="line"/>
      <point x="369" y="134"/>
      <point x="337" y="116"/>
      <point x="306" y="116" type="curve" smooth="yes"/>
      <point x="244" y="116"/>
      <point x="208" y="166"/>
      <point x="208" y="252" type="curve" smooth="yes"/>
      <point x="208" y="398"/>
      <point x="266" y="528"/>
      <point x="368" y="528" type="curve" smooth="yes"/>
      <point x="414" y="528"/>
      <point x="438" y="507"/>
      <point x="464" y="462" type="curve"/>
      <point x="574" y="534" type="line"/>
      <point x="532" y="604"/>
      <point x="478" y="656"/>
    </contour>
    <contour>
      <point x="442" y="754" type="line"/>
      <point x="390" y="754" type="line"/>
      <point x="120" y="-110" type="line"/>
      <point x="172" y="-110" type="line"/>
    </contour>
    <contour>
      <point x="528" y="754" type="line"/>
      <point x="476" y="754" type="line"/>
      <point x="206" y="-110" type="line"/>
      <point x="258" y="-110" type="line"/>
    </contour>
  </outline>
</glyph>
<glyph name="colontriangularhalfmod" format="1">
  <advance width="301"/>
  <outline>
    <contour>
      <point x="139" y="207" type="line"/>
      <point x="154" y="207" type="line"/>
      <point x="298" y="406" type="line"/>
      <point x="75" y="406" type="line"/>
    </contour>
  </outline>
</glyph>
<glyph name="commabelowcmb.alt" format="1">
  <advance width="0"/>
  <outline>
    <contour>
      <point x="104" y="563" type="curve"/>
      <point x="156" y="615" type="line"/>
      <point x="114" y="626"/>
      <point x="102" y="641"/>
      <point x="110" y="656" type="curve" smooth="yes"/>
      <point x="116" y="678"/>
      <point x="142" y="683"/>
      <point x="219" y="674" type="curve"/>
      <point x="229" y="739" type="line"/>
      <point x="98" y="758"/>
      <point x="12" y="741"/>
      <point x="-13" y="672" type="curve" smooth="yes"/>
      <point x="-30" y="623"/>
      <point x="-5" y="590"/>
    </contour>
    <contour>
      <point x="63" y="522" type="move" name="_aboveLC"/>
    </contour>
  </outline>
</glyph>
<glyph name="commabelowcmb" format="1">
  <advance width="0"/>
  <outline>
    <contour>
      <point x="-169" y="-223" type="line"/>
      <point x="-38" y="-242"/>
      <point x="48" y="-225"/>
      <point x="73" y="-156" type="curve" smooth="yes"/>
      <point x="90" y="-107"/>
      <point x="65" y="-74"/>
      <point x="-44" y="-47" type="curve"/>
      <point x="-96" y="-99" type="line"/>
      <point x="-54" y="-110"/>
      <point x="-42" y="-125"/>
      <point x="-50" y="-140" type="curve" smooth="yes"/>
      <point x="-56" y="-162"/>
      <point x="-82" y="-167"/>
      <point x="-159" y="-158" type="curve"/>
    </contour>
    <contour>
      <point x="-6" y="-30" type="move" name="_belowLC"/>
    </contour>
  </outline>
</glyph>
<glyph name="commaturnedabovecmb" format="1">
  <advance width="0"/>
  <outline>
    <contour>
      <point x="110" y="594" type="line"/>
      <point x="120" y="648" type="line"/>
      <point x="128" y="680"/>
      <point x="152" y="694"/>
      <point x="194" y="708" type="curve"/>
      <point x="182" y="758" type="line"/>
      <point x="92" y="732"/>
      <point x="52" y="674"/>
      <point x="52" y="606" type="curve" smooth="yes"/>
      <point x="52" y="568"/>
      <point x="74" y="544"/>
      <point x="110" y="544" type="curve" smooth="yes"/>
      <point x="144" y="544"/>
      <point x="174" y="570"/>
      <point x="174" y="610" type="curve" smooth="yes"/>
      <point x="174" y="638"/>
      <point x="150" y="658"/>
      <point x="126" y="658" type="curve" smooth="yes"/>
      <point x="110" y="658"/>
      <point x="98" y="652"/>
      <point x="86" y="642" type="curve"/>
    </contour>
    <contour>
      <point x="114" y="522" type="move" name="_aboveLC"/>
    </contour>
  </outline>
</glyph>
<glyph name="copyright" format="1">
  <advance width="674"/>
  <outline>
    <contour>
      <point x="298" y="-8" type="curve" smooth="yes"/>
      <point x="518" y="-8"/>
      <point x="676" y="162"/>
      <point x="676" y="378" type="curve" smooth="yes"/>
      <point x="676" y="538"/>
      <point x="562" y="656"/>
      <point x="406" y="656" type="curve" smooth="yes"/>
      <point x="186" y="656"/>
      <point x="28" y="486"/>
      <point x="28" y="270" type="curve" smooth="yes"/>
      <point x="28" y="110"/>
      <point x="142" y="-8"/>
    </contour>
    <contour>
      <point x="400" y="588" type="curve" smooth="yes"/>
      <point x="536" y="588"/>
      <point x="604" y="486"/>
      <point x="604" y="372" type="curve" smooth="yes"/>
      <point x="604" y="198"/>
      <point x="472" y="60"/>
      <point x="304" y="60" type="curve" smooth="yes"/>
      <point x="168" y="60"/>
      <point x="100" y="162"/>
      <point x="100" y="276" type="curve" smooth="yes"/>
      <point x="100" y="450"/>
      <point x="232" y="588"/>
    </contour>
    <contour>
      <point x="172" y="284" type="curve" smooth="yes"/>
      <point x="172" y="188"/>
      <point x="236" y="128"/>
      <point x="332" y="128" type="curve" smooth="yes"/>
      <point x="377" y="128"/>
      <point x="424" y="142"/>
      <point x="466" y="176" type="curve"/>
      <point x="422" y="244" type="line"/>
      <point x="396" y="227"/>
      <point x="382" y="220"/>
      <point x="358" y="220" type="curve" smooth="yes"/>
      <point x="312" y="220"/>
      <point x="286" y="250"/>
      <point x="286" y="298" type="curve" smooth="yes"/>
      <point x="286" y="372"/>
      <point x="338" y="424"/>
      <point x="384" y="424" type="curve" smooth="yes"/>
      <point x="402" y="424"/>
      <point x="420" y="418"/>
      <point x="436" y="400" type="curve"/>
      <point x="502" y="464" type="line"/>
      <point x="482" y="488"/>
      <point x="444" y="516"/>
      <point x="398" y="516" type="curve" smooth="yes"/>
      <point x="292" y="516"/>
      <point x="172" y="426"/>
    </contour>
  </outline>
</glyph>
<glyph name="daggerdbl" format="1">
  <advance width="508"/>
  <outline>
    <contour>
      <point x="8" y="84" type="line"/>
      <point x="168" y="94" type="line"/>
      <point x="124" y="-80" type="line"/>
      <point x="252" y="-80" type="line"/>
      <point x="276" y="94" type="line"/>
      <point x="434" y="84" type="line"/>
      <point x="460" y="212" type="line"/>
      <point x="298" y="200" type="line"/>
      <point x="330" y="316" type="line"/>
      <point x="344" y="432" type="line"/>
      <point x="502" y="418" type="line"/>
      <point x="526" y="546" type="line"/>
      <point x="364" y="536" type="line"/>
      <point x="408" y="712" type="line"/>
      <point x="282" y="712" type="line"/>
      <point x="256" y="536" type="line"/>
      <point x="98" y="546" type="line"/>
      <point x="74" y="418" type="line"/>
      <point x="236" y="432" type="line"/>
      <point x="202" y="316" type="line"/>
      <point x="190" y="200" type="line"/>
      <point x="32" y="212" type="line"/>
    </contour>
  </outline>
</glyph>
<glyph name="dblgravecmb" format="1">
  <advance width="0"/>
  <outline>
    <contour>
      <point x="28" y="726" type="line"/>
      <point x="-98" y="726" type="line"/>
      <point x="-32" y="574" type="line"/>
      <point x="64" y="574" type="line"/>
    </contour>
    <contour>
      <point x="198" y="726" type="line"/>
      <point x="72" y="726" type="line"/>
      <point x="138" y="574" type="line"/>
      <point x="234" y="574" type="line"/>
    </contour>
    <contour>
      <point x="114" y="522" type="move" name="_aboveLC"/>
    </contour>
  </outline>
</glyph>
<glyph name="de" format="1">
  <advance width="580"/>
  <outline>
    <contour>
      <point x="30" y="186" type="curve" smooth="yes"/>
      <point x="30" y="62"/>
      <point x="114" y="-12"/>
      <point x="216" y="-12" type="curve" smooth="yes"/>
      <point x="420" y="-12"/>
      <point x="520" y="205"/>
      <point x="520" y="437" type="curve" smooth="yes"/>
      <point x="520" y="604"/>
      <point x="438" y="708"/>
      <point x="293" y="708" type="curve" smooth="yes"/>
      <point x="248" y="708"/>
      <point x="210" y="701"/>
      <point x="170" y="679" type="curve"/>
      <point x="231" y="569" type="line"/>
      <point x="244" y="579"/>
      <point x="262" y="582"/>
      <point x="280" y="582" type="curve" smooth="yes"/>
      <point x="343" y="582"/>
      <point x="368" y="526"/>
      <point x="368" y="445" type="curve" smooth="yes"/>
      <point x="368" y="312"/>
      <point x="342" y="116"/>
      <point x="230" y="116" type="curve" smooth="yes"/>
      <point x="192" y="116"/>
      <point x="174" y="152"/>
      <point x="174" y="198" type="curve" smooth="yes"/>
      <point x="174" y="264"/>
      <point x="211" y="338"/>
      <point x="290" y="338" type="curve" smooth="yes"/>
      <point x="326" y="338"/>
      <point x="354" y="314"/>
      <point x="368" y="286" type="curve"/>
      <point x="380" y="368" type="line"/>
      <point x="368" y="430"/>
      <point x="320" y="458"/>
      <point x="268" y="458" type="curve" smooth="yes"/>
      <point x="116" y="458"/>
      <point x="30" y="316"/>
    </contour>
  </outline>
</glyph>
<glyph name="diamondblack" format="1">
  <advance width="340"/>
  <outline>
    <contour>
      <point x="170" y="94" type="line"/>
      <point x="334" y="262" type="line"/>
      <point x="170" y="430" type="line"/>
      <point x="6" y="262" type="line"/>
    </contour>
  </outline>
</glyph>
<glyph name="dieresisacute" format="1">
  <advance width="0"/>
  <outline>
    <contour>
      <point x="24" y="740" type="line"/>
      <point x="132" y="740" type="line"/>
      <point x="272" y="852" type="line"/>
      <point x="132" y="852" type="line"/>
    </contour>
    <contour>
      <point x="-32" y="566" type="curve" smooth="yes"/>
      <point x="12" y="566"/>
      <point x="44" y="602"/>
      <point x="44" y="644" type="curve" smooth="yes"/>
      <point x="44" y="674"/>
      <point x="22" y="696"/>
      <point x="-12" y="696" type="curve" smooth="yes"/>
      <point x="-54" y="696"/>
      <point x="-86" y="662"/>
      <point x="-86" y="620" type="curve" smooth="yes"/>
      <point x="-86" y="590"/>
      <point x="-64" y="566"/>
    </contour>
    <contour>
      <point x="166" y="566" type="curve" smooth="yes"/>
      <point x="208" y="566"/>
      <point x="240" y="602"/>
      <point x="240" y="644" type="curve" smooth="yes"/>
      <point x="240" y="674"/>
      <point x="218" y="696"/>
      <point x="186" y="696" type="curve" smooth="yes"/>
      <point x="144" y="696"/>
      <point x="112" y="662"/>
      <point x="112" y="620" type="curve" smooth="yes"/>
      <point x="112" y="590"/>
      <point x="134" y="566"/>
    </contour>
    <contour>
      <point x="66" y="522" type="move" name="_aboveLC"/>
    </contour>
  </outline>
</glyph>
<glyph name="dieresisbelowcmb" format="1">
  <advance width="0"/>
  <outline>
    <contour>
      <point x="-142" y="-220" type="curve" smooth="yes"/>
      <point x="-94" y="-220"/>
      <point x="-60" y="-176"/>
      <point x="-60" y="-136" type="curve" smooth="yes"/>
      <point x="-60" y="-96"/>
      <point x="-90" y="-72"/>
      <point x="-124" y="-72" type="curve" smooth="yes"/>
      <point x="-172" y="-72"/>
      <point x="-206" y="-116"/>
      <point x="-206" y="-156" type="curve" smooth="yes"/>
      <point x="-206" y="-196"/>
      <point x="-178" y="-220"/>
    </contour>
    <contour>
      <point x="58" y="-220" type="curve" smooth="yes"/>
      <point x="106" y="-220"/>
      <point x="140" y="-176"/>
      <point x="140" y="-136" type="curve" smooth="yes"/>
      <point x="140" y="-96"/>
      <point x="110" y="-72"/>
      <point x="76" y="-72" type="curve" smooth="yes"/>
      <point x="28" y="-72"/>
      <point x="-6" y="-116"/>
      <point x="-6" y="-156" type="curve" smooth="yes"/>
      <point x="-6" y="-196"/>
      <point x="22" y="-220"/>
    </contour>
    <contour>
      <point x="-6" y="-30" type="move" name="_belowLC"/>
    </contour>
  </outline>
</glyph>
<glyph name="dieresiscaron.cap" format="1">
  <advance width="0"/>
  <outline>
    <contour>
      <point x="82" y="860" type="line"/>
      <point x="230" y="860" type="line"/>
      <point x="336" y="964" type="line"/>
      <point x="274" y="1008" type="line"/>
      <point x="170" y="936" type="line"/>
      <point x="166" y="936" type="line"/>
      <point x="86" y="1008" type="line"/>
      <point x="12" y="964" type="line"/>
    </contour>
    <contour>
      <point x="24" y="696" type="curve" smooth="yes"/>
      <point x="66" y="696"/>
      <point x="96" y="734"/>
      <point x="96" y="770" type="curve" smooth="yes"/>
      <point x="96" y="804"/>
      <point x="72" y="826"/>
      <point x="40" y="826" type="curve" smooth="yes"/>
      <point x="-2" y="826"/>
      <point x="-32" y="788"/>
      <point x="-32" y="752" type="curve" smooth="yes"/>
      <point x="-32" y="718"/>
      <point x="-8" y="696"/>
    </contour>
    <contour>
      <point x="238" y="696" type="curve" smooth="yes"/>
      <point x="280" y="696"/>
      <point x="310" y="734"/>
      <point x="310" y="770" type="curve" smooth="yes"/>
      <point x="310" y="804"/>
      <point x="286" y="826"/>
      <point x="254" y="826" type="curve" smooth="yes"/>
      <point x="212" y="826"/>
      <point x="182" y="788"/>
      <point x="182" y="752" type="curve" smooth="yes"/>
      <point x="182" y="718"/>
      <point x="206" y="696"/>
    </contour>
    <contour>
      <point x="136" y="682" type="move" name="_aboveUC"/>
    </contour>
  </outline>
</glyph>
<glyph name="dieresiscmb" format="1">
  <advance width="0"/>
  <outline>
    <contour>
      <point x="16" y="566" type="curve" smooth="yes"/>
      <point x="64" y="566"/>
      <point x="100" y="602"/>
      <point x="100" y="648" type="curve" smooth="yes"/>
      <point x="100" y="689"/>
      <point x="71" y="714"/>
      <point x="34" y="714" type="curve" smooth="yes"/>
      <point x="-14" y="714"/>
      <point x="-50" y="675"/>
      <point x="-50" y="632" type="curve" smooth="yes"/>
      <point x="-50" y="589"/>
      <point x="-21" y="566"/>
    </contour>
    <contour>
      <point x="216" y="566" type="curve" smooth="yes"/>
      <point x="264" y="566"/>
      <point x="300" y="602"/>
      <point x="300" y="648" type="curve" smooth="yes"/>
      <point x="300" y="689"/>
      <point x="271" y="714"/>
      <point x="234" y="714" type="curve" smooth="yes"/>
      <point x="186" y="714"/>
      <point x="150" y="675"/>
      <point x="150" y="632" type="curve" smooth="yes"/>
      <point x="150" y="589"/>
      <point x="179" y="566"/>
    </contour>
    <contour>
      <point x="114" y="522" type="move" name="_aboveLC"/>
    </contour>
    <contour>
      <point x="146" y="730" type="move" name="aboveLC"/>
    </contour>
  </outline>
</glyph>
<glyph name="dieresismacron.cap" format="1">
  <advance width="0"/>
  <outline>
    <contour>
      <point x="34" y="696" type="curve" smooth="yes"/>
      <point x="76" y="696"/>
      <point x="106" y="734"/>
      <point x="106" y="770" type="curve" smooth="yes"/>
      <point x="106" y="804"/>
      <point x="82" y="826"/>
      <point x="50" y="826" type="curve" smooth="yes"/>
      <point x="8" y="826"/>
      <point x="-22" y="788"/>
      <point x="-22" y="752" type="curve" smooth="yes"/>
      <point x="-22" y="718"/>
      <point x="2" y="696"/>
    </contour>
    <contour>
      <point x="228" y="696" type="curve" smooth="yes"/>
      <point x="270" y="696"/>
      <point x="300" y="734"/>
      <point x="300" y="770" type="curve" smooth="yes"/>
      <point x="300" y="804"/>
      <point x="276" y="826"/>
      <point x="244" y="826" type="curve" smooth="yes"/>
      <point x="202" y="826"/>
      <point x="172" y="788"/>
      <point x="172" y="752" type="curve" smooth="yes"/>
      <point x="172" y="718"/>
      <point x="196" y="696"/>
    </contour>
    <contour>
      <point x="20" y="872" type="line"/>
      <point x="300" y="872" type="line"/>
      <point x="316" y="946" type="line"/>
      <point x="34" y="946" type="line"/>
    </contour>
    <contour>
      <point x="136" y="682" type="move" name="_aboveUC"/>
    </contour>
  </outline>
</glyph>
<glyph name="dieresistonoscmb" format="1">
  <advance width="0"/>
  <outline>
    <contour>
      <point x="-6" y="582" type="curve" smooth="yes"/>
      <point x="36" y="582"/>
      <point x="64" y="614"/>
      <point x="64" y="650" type="curve" smooth="yes"/>
      <point x="64" y="680"/>
      <point x="40" y="698"/>
      <point x="16" y="698" type="curve" smooth="yes"/>
      <point x="-26" y="698"/>
      <point x="-54" y="666"/>
      <point x="-54" y="630" type="curve" smooth="yes"/>
      <point x="-54" y="600"/>
      <point x="-30" y="582"/>
    </contour>
    <contour>
      <point x="240" y="582" type="curve" smooth="yes"/>
      <point x="282" y="582"/>
      <point x="310" y="614"/>
      <point x="310" y="650" type="curve" smooth="yes"/>
      <point x="310" y="680"/>
      <point x="286" y="698"/>
      <point x="262" y="698" type="curve" smooth="yes"/>
      <point x="220" y="698"/>
      <point x="192" y="666"/>
      <point x="192" y="630" type="curve" smooth="yes"/>
      <point x="192" y="600"/>
      <point x="216" y="582"/>
    </contour>
    <contour>
      <point x="120" y="564" type="line"/>
      <point x="232" y="754" type="line"/>
      <point x="124" y="754" type="line"/>
      <point x="58" y="564" type="line"/>
    </contour>
    <contour>
      <point x="114.0" y="522.0" type="move" name="_aboveLC"/>
    </contour>
  </outline>
</glyph>
<glyph name="dollar" format="1">
  <advance width="520"/>
  <outline>
    <contour>
      <point x="216" y="-12" type="curve" smooth="yes"/>
      <point x="358" y="-12"/>
      <point x="450" y="74"/>
      <point x="450" y="196" type="curve" smooth="yes"/>
      <point x="450" y="354"/>
      <point x="252" y="386"/>
      <point x="252" y="472" type="curve" smooth="yes"/>
      <point x="252" y="504"/>
      <point x="274" y="528"/>
      <point x="314" y="528" type="curve" smooth="yes"/>
      <point x="348" y="528"/>
      <point x="384" y="506"/>
      <point x="410" y="472" type="curve"/>
      <point x="510" y="562" type="line"/>
      <point x="456" y="624"/>
      <point x="392" y="656"/>
      <point x="318" y="656" type="curve" smooth="yes"/>
      <point x="184" y="656"/>
      <point x="94" y="572"/>
      <point x="94" y="454" type="curve" smooth="yes"/>
      <point x="94" y="304"/>
      <point x="292" y="272"/>
      <point x="292" y="176" type="curve" smooth="yes"/>
      <point x="292" y="138"/>
      <point x="268" y="116"/>
      <point x="220" y="116" type="curve" smooth="yes"/>
      <point x="172" y="116"/>
      <point x="130" y="148"/>
      <point x="100" y="186" type="curve"/>
      <point x="2" y="90" type="line"/>
      <point x="58" y="24"/>
      <point x="140" y="-12"/>
    </contour>
    <contour>
      <point x="380" y="606" type="line"/>
      <point x="408" y="754" type="line"/>
      <point x="304" y="754" type="line"/>
      <point x="276" y="606" type="line"/>
    </contour>
    <contour>
      <point x="164" y="54" type="line"/>
      <point x="132" y="-110" type="line"/>
      <point x="236" y="-110" type="line"/>
      <point x="270" y="54" type="line"/>
    </contour>
  </outline>
</glyph>
<glyph name="dotbelowcmb" format="1">
  <advance width="0"/>
  <outline>
    <contour>
      <point x="-42" y="-236" type="curve" smooth="yes"/>
      <point x="12" y="-236"/>
      <point x="54" y="-198"/>
      <point x="54" y="-146" type="curve" smooth="yes"/>
      <point x="54" y="-98"/>
      <point x="12" y="-72"/>
      <point x="-30" y="-72" type="curve" smooth="yes"/>
      <point x="-84" y="-72"/>
      <point x="-126" y="-114"/>
      <point x="-126" y="-162" type="curve" smooth="yes"/>
      <point x="-126" y="-212"/>
      <point x="-84" y="-236"/>
    </contour>
    <contour>
      <point x="-6" y="-30" type="move" name="_belowLC"/>
    </contour>
  </outline>
</glyph>
<glyph name="dze" format="1">
  <advance width="432"/>
  <outline>
    <component base="s"/>
    <contour>
      <point x="284.0" y="522.0" type="move" name="aboveLC"/>
    </contour>
    <contour>
      <point x="184.0" y="-22.0" type="move" name="belowLC"/>
    </contour>
    <contour>
      <point x="170.0" y="0.0" type="move" name="baseLC"/>
    </contour>
  </outline>
</glyph>
<glyph name="eacute.sups" format="1">
  <advance width="336"/>
  <outline>
    <contour>
      <point x="190" y="639" type="line"/>
      <point x="272" y="639" type="line"/>
      <point x="376" y="740" type="line"/>
      <point x="267" y="740" type="line"/>
    </contour>
    <component base="e.sups"/>
  </outline>
</glyph>
<glyph name="egrave.sups" format="1">
  <advance width="336"/>
  <outline>
    <contour>
      <point x="228" y="639" type="line"/>
      <point x="304" y="639" type="line"/>
      <point x="266" y="740" type="line"/>
      <point x="166" y="740" type="line"/>
    </contour>
    <component base="e.sups"/>
  </outline>
</glyph>
<glyph name="el" format="1">
  <advance width="564"/>
  <outline>
    <contour>
      <point x="-40" y="2" type="line"/>
      <point x="-26" y="-4"/>
      <point x="-8" y="-12"/>
      <point x="24" y="-12" type="curve" smooth="yes"/>
      <point x="142" y="-12"/>
      <point x="214" y="56"/>
      <point x="256" y="204" type="curve" smooth="yes"/>
      <point x="270" y="254"/>
      <point x="280" y="310"/>
      <point x="292" y="376" type="curve"/>
      <point x="372" y="376" type="line"/>
      <point x="296" y="0" type="line"/>
      <point x="456" y="0" type="line"/>
      <point x="556" y="500" type="line"/>
      <point x="176" y="500" type="line"/>
      <point x="160" y="404"/>
      <point x="146" y="328"/>
      <point x="130" y="268" type="curve" smooth="yes"/>
      <point x="106" y="180"/>
      <point x="80" y="136"/>
      <point x="48" y="136" type="curve" smooth="yes"/>
      <point x="36" y="136"/>
      <point x="24" y="138"/>
      <point x="12" y="144" type="curve"/>
    </contour>
  </outline>
</glyph>
<glyph name="en" format="1">
  <advance width="568"/>
  <outline>
    <contour>
      <point x="8" y="0" type="line"/>
      <point x="168" y="0" type="line"/>
      <point x="204" y="184" type="line"/>
      <point x="335" y="184" type="line"/>
      <point x="298" y="0" type="line"/>
      <point x="458" y="0" type="line"/>
      <point x="558" y="500" type="line"/>
      <point x="398" y="500" type="line"/>
      <point x="362" y="322" type="line"/>
      <point x="232" y="322" type="line"/>
      <point x="268" y="500" type="line"/>
      <point x="108" y="500" type="line"/>
    </contour>
  </outline>
</glyph>
<glyph name="es" format="1">
  <advance width="446"/>
  <outline>
    <component base="c"/>
    <contour>
      <point x="324.0" y="522.0" type="move" name="aboveLC"/>
    </contour>
    <contour>
      <point x="224.0" y="-22.0" type="move" name="belowLC"/>
    </contour>
    <contour>
      <point x="208.0" y="0.0" type="move" name="baseLC"/>
    </contour>
  </outline>
</glyph>
<glyph name="esdescender" format="1">
  <advance width="446"/>
  <outline>
    <contour>
      <point x="261" y="-172" type="line"/>
      <point x="282" y="-30" type="line"/>
      <point x="158" y="-30" type="line"/>
      <point x="103" y="-172" type="line"/>
    </contour>
    <component base="c"/>
  </outline>
</glyph>
<glyph name="eth" format="1">
  <advance width="542"/>
  <outline>
    <contour>
      <point x="30" y="186" type="curve" smooth="yes"/>
      <point x="30" y="62"/>
      <point x="119" y="-12"/>
      <point x="226" y="-12" type="curve" smooth="yes"/>
      <point x="418" y="-12"/>
      <point x="504" y="180"/>
      <point x="504" y="360" type="curve" smooth="yes"/>
      <point x="504" y="536"/>
      <point x="410" y="664"/>
      <point x="256" y="744" type="curve"/>
      <point x="184" y="652" type="line"/>
      <point x="310" y="574"/>
      <point x="356" y="487"/>
      <point x="356" y="352" type="curve" smooth="yes"/>
      <point x="356" y="216"/>
      <point x="312" y="116"/>
      <point x="240" y="116" type="curve" smooth="yes"/>
      <point x="196" y="116"/>
      <point x="174" y="152"/>
      <point x="174" y="198" type="curve" smooth="yes"/>
      <point x="174" y="264"/>
      <point x="208" y="338"/>
      <point x="280" y="338" type="curve" smooth="yes"/>
      <point x="316" y="338"/>
      <point x="344" y="314"/>
      <point x="358" y="286" type="curve"/>
      <point x="370" y="368" type="line"/>
      <point x="358" y="430"/>
      <point x="310" y="458"/>
      <point x="258" y="458" type="curve" smooth="yes"/>
      <point x="112" y="458"/>
      <point x="30" y="316"/>
    </contour>
    <contour>
      <point x="168" y="476" type="line"/>
      <point x="562" y="632" type="line"/>
      <point x="532" y="706" type="line"/>
      <point x="138" y="550" type="line"/>
    </contour>
  </outline>
</glyph>
<glyph name="f" format="1">
  <advance width="344"/>
  <outline>
    <contour>
      <point x="46" y="376" type="line"/>
      <point x="110" y="376" type="line"/>
      <point x="34" y="0" type="line"/>
      <point x="194" y="0" type="line"/>
      <point x="268" y="376" type="line"/>
      <point x="352" y="376" type="line"/>
      <point x="376" y="500" type="line"/>
      <point x="294" y="500" type="line"/>
      <point x="298" y="520" type="line" smooth="yes"/>
      <point x="308" y="574"/>
      <point x="328" y="582"/>
      <point x="362" y="582" type="curve" smooth="yes"/>
      <point x="378" y="582"/>
      <point x="398" y="574"/>
      <point x="408" y="568" type="curve"/>
      <point x="458" y="680" type="line"/>
      <point x="424" y="698"/>
      <point x="384" y="708"/>
      <point x="344" y="708" type="curve" smooth="yes"/>
      <point x="218" y="708"/>
      <point x="158" y="618"/>
      <point x="138" y="514" type="curve" smooth="yes"/>
      <point x="136" y="500" type="line"/>
      <point x="70" y="494" type="line"/>
    </contour>
    <contour>
      <point x="324" y="740" type="move" name="aboveLC"/>
    </contour>
    <contour>
      <point x="122" y="-22" type="move" name="belowLC"/>
    </contour>
  </outline>
</glyph>
<glyph name="fisheye" format="1">
  <advance width="474"/>
  <outline>
    <contour>
      <point x="238" y="56" type="curve" smooth="yes"/>
      <point x="352" y="56"/>
      <point x="438" y="142"/>
      <point x="438" y="262" type="curve" smooth="yes"/>
      <point x="438" y="382"/>
      <point x="352" y="468"/>
      <point x="238" y="468" type="curve" smooth="yes"/>
      <point x="124" y="468"/>
      <point x="38" y="382"/>
      <point x="38" y="262" type="curve" smooth="yes"/>
      <point x="38" y="142"/>
      <point x="124" y="56"/>
    </contour>
    <contour>
      <point x="238" y="134" type="curve" smooth="yes"/>
      <point x="170" y="134"/>
      <point x="120" y="186"/>
      <point x="120" y="262" type="curve" smooth="yes"/>
      <point x="120" y="338"/>
      <point x="170" y="390"/>
      <point x="238" y="390" type="curve" smooth="yes"/>
      <point x="306" y="390"/>
      <point x="356" y="338"/>
      <point x="356" y="262" type="curve" smooth="yes"/>
      <point x="356" y="186"/>
      <point x="306" y="134"/>
    </contour>
    <contour>
      <point x="238" y="192" type="curve" smooth="yes"/>
      <point x="274" y="192"/>
      <point x="304" y="222"/>
      <point x="304" y="262" type="curve" smooth="yes"/>
      <point x="304" y="302"/>
      <point x="274" y="332"/>
      <point x="238" y="332" type="curve" smooth="yes"/>
      <point x="202" y="332"/>
      <point x="172" y="302"/>
      <point x="172" y="262" type="curve" smooth="yes"/>
      <point x="172" y="222"/>
      <point x="202" y="192"/>
    </contour>
  </outline>
</glyph>
<glyph name="floorleft" format="1">
  <advance width="344"/>
  <outline>
    <contour>
      <point x="148" y="634" type="line"/>
      <point x="12" y="-58" type="line"/>
      <point x="224" y="-58" type="line"/>
      <point x="242" y="26" type="line"/>
      <point x="148" y="26" type="line"/>
      <point x="268" y="634" type="line"/>
    </contour>
  </outline>
</glyph>
<glyph name="g.sups" format="1">
  <advance width="370"/>
  <outline>
    <contour>
      <point x="314" y="592" type="line"/>
      <point x="298" y="558" type="line"/>
      <point x="294" y="558" type="line"/>
      <point x="282" y="582"/>
      <point x="258" y="600"/>
      <point x="230" y="600" type="curve" smooth="yes"/>
      <point x="137" y="600"/>
      <point x="54" y="502"/>
      <point x="54" y="381" type="curve" smooth="yes"/>
      <point x="54" y="307"/>
      <point x="89" y="265"/>
      <point x="148" y="265" type="curve" smooth="yes"/>
      <point x="182" y="265"/>
      <point x="214" y="278"/>
      <point x="244" y="300" type="curve"/>
      <point x="248" y="300" type="line"/>
      <point x="232" y="255" type="line" smooth="yes"/>
      <point x="219" y="219"/>
      <point x="193" y="199"/>
      <point x="160" y="199" type="curve" smooth="yes"/>
      <point x="128" y="199"/>
      <point x="96" y="215"/>
      <point x="67" y="232" type="curve"/>
      <point x="23" y="158" type="line"/>
      <point x="67" y="126"/>
      <point x="118" y="113"/>
      <point x="157" y="113" type="curve" smooth="yes"/>
      <point x="252" y="113"/>
      <point x="317" y="159"/>
      <point x="338" y="262" type="curve" smooth="yes"/>
      <point x="404" y="592" type="line"/>
    </contour>
    <contour>
      <point x="196" y="354" type="curve" smooth="yes"/>
      <point x="180" y="354"/>
      <point x="169" y="366"/>
      <point x="169" y="395" type="curve" smooth="yes"/>
      <point x="169" y="463"/>
      <point x="200" y="510"/>
      <point x="238" y="510" type="curve" smooth="yes"/>
      <point x="249" y="510"/>
      <point x="263" y="502"/>
      <point x="270" y="486" type="curve"/>
      <point x="251" y="383" type="line"/>
      <point x="235" y="359"/>
      <point x="214" y="354"/>
    </contour>
  </outline>
</glyph>
<glyph name="gravecmb" format="1">
  <advance width="0"/>
  <outline>
    <contour>
      <point x="82" y="574" type="line"/>
      <point x="192" y="574" type="line"/>
      <point x="136" y="726" type="line"/>
      <point x="-10" y="726" type="line"/>
    </contour>
    <contour>
      <point x="114" y="522" type="move" name="_aboveLC"/>
    </contour>
  </outline>
</glyph>
<glyph name="gscript" format="1">
  <advance width="552"/>
  <outline>
    <component base="g"/>
    <contour>
      <point x="324" y="522" type="move" name="aboveLC"/>
    </contour>
    <contour>
      <point x="354" y="-218" type="move" name="belowLC"/>
    </contour>
  </outline>
</glyph>
<glyph name="guilsinglright" format="1">
  <advance width="280"/>
  <outline>
    <contour>
      <point x="144" y="448" type="line"/>
      <point x="82" y="408" type="line"/>
      <point x="158" y="256" type="line"/>
      <point x="28" y="106" type="line"/>
      <point x="76" y="54" type="line"/>
      <point x="228" y="190" type="line"/>
      <point x="248" y="302" type="line"/>
    </contour>
  </outline>
</glyph>
<glyph name="hoicmb.cap" format="1">
  <advance width="0"/>
  <outline>
    <contour>
      <point x="74" y="694" type="line"/>
      <point x="156" y="691"/>
      <point x="230" y="716"/>
      <point x="243" y="787" type="curve" smooth="yes"/>
      <point x="252" y="841"/>
      <point x="217" y="882"/>
      <point x="80" y="898" type="curve"/>
      <point x="46" y="817" type="line"/>
      <point x="102" y="808"/>
      <point x="120" y="796"/>
      <point x="118" y="780" type="curve" smooth="yes"/>
      <point x="116" y="765"/>
      <point x="96" y="761"/>
      <point x="74" y="760" type="curve"/>
    </contour>
    <contour>
      <point x="136" y="682" type="move" name="_aboveUC"/>
    </contour>
  </outline>
</glyph>
<glyph name="hoicmb" format="1">
  <advance width="0"/>
  <outline>
    <contour>
      <point x="60" y="572" type="line"/>
      <point x="143" y="569"/>
      <point x="218" y="595"/>
      <point x="232" y="666" type="curve" smooth="yes"/>
      <point x="245" y="739"/>
      <point x="209" y="796"/>
      <point x="65" y="813" type="curve"/>
      <point x="36" y="711" type="line"/>
      <point x="92" y="702"/>
      <point x="110" y="686"/>
      <point x="106" y="665" type="curve" smooth="yes"/>
      <point x="102" y="645"/>
      <point x="83" y="640"/>
      <point x="61" y="638" type="curve"/>
    </contour>
    <contour>
      <point x="114" y="522" type="move" name="_aboveLC"/>
    </contour>
    <contour>
      <point x="146" y="730" type="move" name="aboveLC"/>
    </contour>
  </outline>
</glyph>
<glyph name="horncmb" format="1">
  <advance width="0"/>
  <outline>
    <contour>
      <point x="80" y="424" type="line"/>
      <point x="222" y="436"/>
      <point x="278" y="495"/>
      <point x="278" y="568" type="curve" smooth="yes"/>
      <point x="278" y="590"/>
      <point x="274" y="612"/>
      <point x="264" y="634" type="curve"/>
      <point x="146" y="598" type="line"/>
      <point x="151" y="586"/>
      <point x="154" y="572"/>
      <point x="154" y="560" type="curve" smooth="yes"/>
      <point x="154" y="528"/>
      <point x="128" y="496"/>
      <point x="80" y="490" type="curve"/>
    </contour>
    <contour>
      <point x="100" y="500" type="move" name="_hornLC"/>
    </contour>
  </outline>
</glyph>
<glyph name="hryvnia" format="1">
  <advance width="515"/>
  <outline>
    <contour>
      <point x="58" y="139" type="curve" smooth="yes"/>
      <point x="58" y="48"/>
      <point x="116" y="-12"/>
      <point x="237" y="-12" type="curve" smooth="yes"/>
      <point x="292" y="-12"/>
      <point x="380" y="14"/>
      <point x="444" y="66" type="curve"/>
      <point x="400" y="167" type="line"/>
      <point x="345" y="128"/>
      <point x="300" y="110"/>
      <point x="261" y="110" type="curve" smooth="yes"/>
      <point x="225" y="110"/>
      <point x="210" y="129"/>
      <point x="210" y="157" type="curve" smooth="yes"/>
      <point x="210" y="276"/>
      <point x="487" y="282"/>
      <point x="487" y="502" type="curve" smooth="yes"/>
      <point x="487" y="594"/>
      <point x="426" y="647"/>
      <point x="322" y="647" type="curve" smooth="yes"/>
      <point x="242" y="647"/>
      <point x="180" y="613"/>
      <point x="126" y="574" type="curve"/>
      <point x="183" y="474" type="line"/>
      <point x="222" y="506"/>
      <point x="256" y="525"/>
      <point x="289" y="525" type="curve" smooth="yes"/>
      <point x="319" y="525"/>
      <point x="334" y="509"/>
      <point x="334" y="482" type="curve" smooth="yes"/>
      <point x="334" y="369"/>
      <point x="58" y="370"/>
    </contour>
    <contour>
      <point x="42" y="338" type="line"/>
      <point x="511" y="338" type="line"/>
      <point x="527" y="417" type="line"/>
      <point x="130" y="417" type="line"/>
      <point x="57" y="411" type="line"/>
    </contour>
    <contour>
      <point x="17" y="212" type="line"/>
      <point x="486" y="212" type="line"/>
      <point x="502" y="291" type="line"/>
      <point x="105" y="291" type="line"/>
      <point x="32" y="285" type="line"/>
    </contour>
  </outline>
</glyph>
<glyph name="hungarumlautcmb.cap" format="1">
  <advance width="0"/>
  <outline>
    <contour>
      <point x="-18" y="700" type="line"/>
      <point x="88" y="700" type="line"/>
      <point x="200" y="822" type="line"/>
      <point x="66" y="822" type="line"/>
    </contour>
    <contour>
      <point x="160" y="700" type="line"/>
      <point x="266" y="700" type="line"/>
      <point x="378" y="822" type="line"/>
      <point x="244" y="822" type="line"/>
    </contour>
    <contour>
      <point x="136" y="682" type="move" name="_aboveUC"/>
    </contour>
  </outline>
</glyph>
<glyph name="hungarumlautcmb" format="1">
  <advance width="0"/>
  <outline>
    <contour>
      <point x="-20" y="574" type="line"/>
      <point x="82" y="574" type="line"/>
      <point x="206" y="726" type="line"/>
      <point x="80" y="726" type="line"/>
    </contour>
    <contour>
      <point x="152" y="574" type="line"/>
      <point x="254" y="574" type="line"/>
      <point x="378" y="726" type="line"/>
      <point x="252" y="726" type="line"/>
    </contour>
    <contour>
      <point x="114" y="522" type="move" name="_aboveLC"/>
    </contour>
  </outline>
</glyph>
<glyph name="hyphen" format="1">
  <advance width="328"/>
  <outline>
    <contour>
      <point x="32" y="198" type="line"/>
      <point x="272" y="198" type="line"/>
      <point x="296" y="310" type="line"/>
      <point x="56" y="310" type="line"/>
    </contour>
  </outline>
</glyph>
<glyph name="i.sups" format="1">
  <advance width="186"/>
  <outline>
    <contour>
      <point x="38" y="260" type="line"/>
      <point x="150" y="260" type="line"/>
      <point x="216" y="592" type="line"/>
      <point x="104" y="592" type="line"/>
    </contour>
    <contour>
      <point x="176" y="632" type="curve" smooth="yes"/>
      <point x="212" y="632"/>
      <point x="242" y="660"/>
      <point x="242" y="692" type="curve" smooth="yes"/>
      <point x="242" y="726"/>
      <point x="214" y="742"/>
      <point x="184" y="742" type="curve" smooth="yes"/>
      <point x="148" y="742"/>
      <point x="118" y="714"/>
      <point x="118" y="682" type="curve" smooth="yes"/>
      <point x="118" y="648"/>
      <point x="146" y="632"/>
    </contour>
  </outline>
</glyph>
<glyph name="ie" format="1">
  <advance width="502"/>
  <outline>
    <component base="e"/>
    <contour>
      <point x="326.0" y="522.0" type="move" name="aboveLC"/>
    </contour>
    <contour>
      <point x="224.0" y="-22.0" type="move" name="belowLC"/>
    </contour>
    <contour>
      <point x="290.0" y="0.0" type="move" name="ogonekLC"/>
    </contour>
  </outline>
</glyph>
<glyph name="ieukran" format="1">
  <advance width="446"/>
  <outline>
    <contour>
      <point x="119" y="202" type="line"/>
      <point x="327" y="202" type="line"/>
      <point x="347" y="306" type="line"/>
      <point x="139" y="306" type="line"/>
    </contour>
    <contour>
      <point x="26" y="196" type="curve" smooth="yes"/>
      <point x="26" y="64"/>
      <point x="114" y="-12"/>
      <point x="226" y="-12" type="curve" smooth="yes"/>
      <point x="306" y="-12"/>
      <point x="358" y="18"/>
      <point x="396" y="46" type="curve"/>
      <point x="330" y="144" type="line"/>
      <point x="312" y="130"/>
      <point x="292" y="116"/>
      <point x="262" y="116" type="curve" smooth="yes"/>
      <point x="207" y="116"/>
      <point x="176" y="148"/>
      <point x="176" y="198" type="curve" smooth="yes"/>
      <point x="176" y="300"/>
      <point x="228" y="384"/>
      <point x="316" y="384" type="curve" smooth="yes"/>
      <point x="340" y="384"/>
      <point x="356" y="374"/>
      <point x="374" y="356" type="curve"/>
      <point x="462" y="450" type="line"/>
      <point x="438" y="480"/>
      <point x="390" y="512"/>
      <point x="326" y="512" type="curve" smooth="yes"/>
      <point x="154" y="512"/>
      <point x="26" y="364"/>
    </contour>
  </outline>
</glyph>
<glyph name="j.sups" format="1">
  <advance width="187"/>
  <outline>
    <contour>
      <point x="216" y="592" type="line"/>
      <point x="104" y="592" type="line"/>
      <point x="38" y="260" type="line" smooth="yes"/>
      <point x="31" y="225"/>
      <point x="25" y="214"/>
      <point x="4" y="214" type="curve" smooth="yes"/>
      <point x="-5" y="214"/>
      <point x="-14" y="216"/>
      <point x="-24" y="220" type="curve"/>
      <point x="-57" y="143" type="line"/>
      <point x="-32" y="131"/>
      <point x="-10" y="128"/>
      <point x="14" y="128" type="curve" smooth="yes"/>
      <point x="96" y="128"/>
      <point x="134" y="181"/>
      <point x="148" y="250" type="curve" smooth="yes"/>
    </contour>
    <contour>
      <point x="176" y="632" type="curve" smooth="yes"/>
      <point x="212" y="632"/>
      <point x="242" y="660"/>
      <point x="242" y="692" type="curve" smooth="yes"/>
      <point x="242" y="726"/>
      <point x="214" y="742"/>
      <point x="184" y="742" type="curve" smooth="yes"/>
      <point x="148" y="742"/>
      <point x="118" y="714"/>
      <point x="118" y="682" type="curve" smooth="yes"/>
      <point x="118" y="648"/>
      <point x="146" y="632"/>
    </contour>
  </outline>
</glyph>
<glyph name="je" format="1">
  <advance width="278"/>
  <outline>
    <component base="j"/>
    <contour>
      <point x="240.0" y="732.0" type="move" name="aboveLC"/>
    </contour>
    <contour>
      <point x="-8.0" y="-238.0" type="move" name="belowLC"/>
    </contour>
  </outline>
</glyph>
<glyph name="k.sups" format="1">
  <advance width="367"/>
  <outline>
    <contour>
      <point x="38" y="260" type="line"/>
      <point x="150" y="260" type="line"/>
      <point x="166" y="340" type="line"/>
      <point x="208" y="380" type="line"/>
      <point x="253" y="260" type="line"/>
      <point x="364" y="260" type="line"/>
      <point x="283" y="443" type="line"/>
      <point x="422" y="592" type="line"/>
      <point x="300" y="592" type="line"/>
      <point x="196" y="474" type="line"/>
      <point x="192" y="474" type="line"/>
      <point x="242" y="720" type="line"/>
      <point x="130" y="720" type="line"/>
    </contour>
  </outline>
</glyph>
<glyph name="kgreenlandic" format="1">
  <advance width="544"/>
  <outline>
    <contour>
      <point x="8" y="0" type="line"/>
      <point x="168" y="0" type="line"/>
      <point x="192" y="118" type="line"/>
      <point x="260" y="186" type="line"/>
      <point x="328" y="0" type="line"/>
      <point x="488" y="0" type="line"/>
      <point x="370" y="278" type="line"/>
      <point x="576" y="500" type="line"/>
      <point x="400" y="500" type="line"/>
      <point x="236" y="320" type="line"/>
      <point x="232" y="320" type="line"/>
      <point x="266" y="500" type="line"/>
      <point x="106" y="500" type="line"/>
    </contour>
  </outline>
</glyph>
<glyph name="koppa" format="1">
  <advance width="540"/>
  <outline>
    <contour>
      <point x="226" y="-12" type="curve" smooth="yes"/>
      <point x="364" y="-12"/>
      <point x="510" y="110"/>
      <point x="510" y="304" type="curve" smooth="yes"/>
      <point x="510" y="428"/>
      <point x="430" y="512"/>
      <point x="310" y="512" type="curve" smooth="yes"/>
      <point x="172" y="512"/>
      <point x="26" y="390"/>
      <point x="26" y="196" type="curve" smooth="yes"/>
      <point x="26" y="72"/>
      <point x="106" y="-12"/>
    </contour>
    <contour>
      <point x="292" y="384" type="curve" smooth="yes"/>
      <point x="330" y="384"/>
      <point x="348" y="352"/>
      <point x="348" y="302" type="curve" smooth="yes"/>
      <point x="348" y="188"/>
      <point x="302" y="108"/>
      <point x="244" y="108" type="curve" smooth="yes"/>
      <point x="206" y="108"/>
      <point x="188" y="142"/>
      <point x="188" y="198" type="curve" smooth="yes"/>
      <point x="188" y="306"/>
      <point x="234" y="384"/>
    </contour>
    <contour>
      <point x="162" y="53" type="line"/>
      <point x="114" y="-176" type="line"/>
      <point x="276" y="-176" type="line"/>
      <point x="282" y="-114"/>
      <point x="290" y="-50"/>
      <point x="302" y="14" type="curve"/>
    </contour>
  </outline>
</glyph>
<glyph name="l" format="1">
  <advance width="286"/>
  <outline>
    <contour>
      <point x="42" y="166" type="line" smooth="yes"/>
      <point x="36" y="138"/>
      <point x="34" y="118"/>
      <point x="34" y="98" type="curve" smooth="yes"/>
      <point x="34" y="30"/>
      <point x="66" y="-12"/>
      <point x="148" y="-12" type="curve" smooth="yes"/>
      <point x="184" y="-12"/>
      <point x="212" y="-6"/>
      <point x="230" y="0" type="curve"/>
      <point x="236" y="118" type="line"/>
      <point x="228" y="116"/>
      <point x="224" y="116"/>
      <point x="218" y="116" type="curve" smooth="yes"/>
      <point x="208" y="116"/>
      <point x="198" y="122"/>
      <point x="198" y="141" type="curve" smooth="yes"/>
      <point x="198" y="146"/>
      <point x="198" y="150"/>
      <point x="200" y="160" type="curve" smooth="yes"/>
      <point x="308" y="696" type="line"/>
      <point x="148" y="696" type="line"/>
    </contour>
    <contour>
      <point x="240" y="730" type="move" name="aboveLC"/>
    </contour>
    <contour>
      <point x="90" y="-22" type="move" name="belowLC"/>
    </contour>
  </outline>
</glyph>
<glyph name="l.supa" format="1">
  <advance width="186"/>
  <outline>
    <contour>
      <point x="38" y="260" type="line"/>
      <point x="150" y="260" type="line"/>
      <point x="242" y="720" type="line"/>
      <point x="130" y="720" type="line"/>
    </contour>
  </outline>
</glyph>
<glyph name="l.sups" format="1">
  <advance width="186"/>
  <outline>
    <contour>
      <point x="61" y="373" type="line" smooth="yes"/>
      <point x="57" y="354"/>
      <point x="56" y="341"/>
      <point x="56" y="327" type="curve" smooth="yes"/>
      <point x="56" y="281"/>
      <point x="78" y="252"/>
      <point x="135" y="252" type="curve" smooth="yes"/>
      <point x="159" y="252"/>
      <point x="179" y="256"/>
      <point x="191" y="260" type="curve"/>
      <point x="193" y="341" type="line"/>
      <point x="188" y="339"/>
      <point x="187" y="339"/>
      <point x="183" y="339" type="curve" smooth="yes"/>
      <point x="176" y="339"/>
      <point x="169" y="341"/>
      <point x="169" y="355" type="curve" smooth="yes"/>
      <point x="169" y="358"/>
      <point x="170" y="364"/>
      <point x="171" y="367" type="curve"/>
      <point x="242" y="720" type="line"/>
      <point x="130" y="720" type="line"/>
    </contour>
  </outline>
</glyph>
<glyph name="lje" format="1">
  <advance width="779"/>
  <outline>
    <contour>
      <point x="-40" y="2" type="line"/>
      <point x="-26" y="-4"/>
      <point x="-8" y="-12"/>
      <point x="24" y="-12" type="curve" smooth="yes"/>
      <point x="142" y="-12"/>
      <point x="214" y="56"/>
      <point x="256" y="204" type="curve" smooth="yes"/>
      <point x="270" y="254"/>
      <point x="280" y="310"/>
      <point x="292" y="376" type="curve"/>
      <point x="372" y="376" type="line"/>
      <point x="556" y="500" type="line"/>
      <point x="176" y="500" type="line"/>
      <point x="160" y="404"/>
      <point x="146" y="328"/>
      <point x="130" y="268" type="curve" smooth="yes"/>
      <point x="106" y="180"/>
      <point x="80" y="136"/>
      <point x="48" y="136" type="curve" smooth="yes"/>
      <point x="36" y="136"/>
      <point x="24" y="138"/>
      <point x="12" y="144" type="curve"/>
    </contour>
    <contour>
      <point x="528" y="-12" type="curve" smooth="yes"/>
      <point x="646" y="-12"/>
      <point x="744" y="71"/>
      <point x="744" y="198" type="curve" smooth="yes"/>
      <point x="744" y="284"/>
      <point x="692" y="342"/>
      <point x="598" y="342" type="curve" smooth="yes"/>
      <point x="567" y="342"/>
      <point x="552" y="338"/>
      <point x="522" y="328" type="curve"/>
      <point x="556" y="500" type="line"/>
      <point x="396" y="500" type="line"/>
      <point x="340" y="216" type="line" smooth="yes"/>
      <point x="337" y="200"/>
      <point x="334" y="187"/>
      <point x="334" y="168" type="curve" smooth="yes"/>
      <point x="334" y="55"/>
      <point x="410" y="-12"/>
    </contour>
    <contour>
      <point x="540" y="108" type="curve" smooth="yes"/>
      <point x="512" y="108"/>
      <point x="490" y="129"/>
      <point x="490" y="160" type="curve" smooth="yes"/>
      <point x="490" y="176"/>
      <point x="494" y="190"/>
      <point x="498" y="210" type="curve"/>
      <point x="520" y="220"/>
      <point x="530" y="224"/>
      <point x="546" y="224" type="curve" smooth="yes"/>
      <point x="579" y="224"/>
      <point x="598" y="206"/>
      <point x="598" y="174" type="curve" smooth="yes"/>
      <point x="598" y="138"/>
      <point x="579" y="108"/>
    </contour>
  </outline>
</glyph>
<glyph name="lslash" format="1">
  <advance width="298"/>
  <outline>
    <contour>
      <point x="236" y="340" type="line"/>
      <point x="320" y="388" type="line"/>
      <point x="344" y="514" type="line"/>
      <point x="260" y="466" type="line"/>
      <point x="112" y="403" type="line"/>
      <point x="36" y="360" type="line"/>
      <point x="8" y="234" type="line"/>
      <point x="88" y="277" type="line"/>
    </contour>
    <component base="l" xOffset="12"/>
  </outline>
</glyph>
<glyph name="macronacute.cap" format="1">
  <advance width="0"/>
  <outline>
    <contour>
      <point x="78" y="856" type="line"/>
      <point x="204" y="856" type="line"/>
      <point x="346" y="978" type="line"/>
      <point x="178" y="978" type="line"/>
    </contour>
    <contour>
      <point x="-16" y="716" type="line"/>
      <point x="264" y="716" type="line"/>
      <point x="284" y="818" type="line"/>
      <point x="4" y="818" type="line"/>
    </contour>
  </outline>
</glyph>
<glyph name="macronacute" format="1">
  <advance width="0"/>
  <outline>
    <contour>
      <point x="24" y="740" type="line"/>
      <point x="132" y="740" type="line"/>
      <point x="272" y="852" type="line"/>
      <point x="132" y="852" type="line"/>
    </contour>
    <contour>
      <point x="-68" y="590" type="line"/>
      <point x="206" y="590" type="line"/>
      <point x="226" y="690" type="line"/>
      <point x="-48" y="690" type="line"/>
    </contour>
  </outline>
</glyph>
<glyph name="macronbelowcmb" format="1">
  <advance width="0"/>
  <outline>
    <contour>
      <point x="-182" y="-190" type="line"/>
      <point x="92" y="-190" type="line"/>
      <point x="112" y="-90" type="line"/>
      <point x="-162" y="-90" type="line"/>
    </contour>
    <contour>
      <point x="-6" y="-30" type="move" name="_belowLC"/>
    </contour>
  </outline>
</glyph>
<glyph name="macroncmb" format="1">
  <advance width="0"/>
  <outline>
    <contour>
      <point x="-22" y="590" type="line"/>
      <point x="252" y="590" type="line"/>
      <point x="272" y="690" type="line"/>
      <point x="-2" y="690" type="line"/>
    </contour>
    <contour>
      <point x="114" y="522" type="move" name="_aboveLC"/>
    </contour>
  </outline>
</glyph>
<glyph name="multiply" format="1">
  <advance width="520"/>
  <outline>
    <contour>
      <point x="272" y="252" type="line"/>
      <point x="404" y="114" type="line"/>
      <point x="482" y="192" type="line"/>
      <point x="350" y="330" type="line"/>
      <point x="482" y="468" type="line"/>
      <point x="404" y="546" type="line"/>
      <point x="272" y="408" type="line"/>
      <point x="140" y="546" type="line"/>
      <point x="62" y="468" type="line"/>
      <point x="194" y="330" type="line"/>
      <point x="62" y="192" type="line"/>
      <point x="140" y="114" type="line"/>
    </contour>
  </outline>
</glyph>
<glyph name="n" format="1">
  <advance width="562"/>
  <outline>
    <contour>
      <point x="8" y="0" type="line"/>
      <point x="168" y="0" type="line"/>
      <point x="230" y="320" type="line"/>
      <point x="266" y="358"/>
      <point x="290" y="376"/>
      <point x="318" y="376" type="curve" smooth="yes"/>
      <point x="344" y="376"/>
      <point x="360" y="362"/>
      <point x="360" y="334" type="curve" smooth="yes"/>
      <point x="360" y="322"/>
      <point x="356" y="308"/>
      <point x="352" y="290" type="curve" smooth="yes"/>
      <point x="294" y="0" type="line"/>
      <point x="454" y="0" type="line"/>
      <point x="516" y="310" type="line" smooth="yes"/>
      <point x="521" y="334"/>
      <point x="524" y="360"/>
      <point x="524" y="382" type="curve" smooth="yes"/>
      <point x="524" y="468"/>
      <point x="488" y="512"/>
      <point x="406" y="512" type="curve" smooth="yes"/>
      <point x="342" y="512"/>
      <point x="286" y="476"/>
      <point x="240" y="436" type="curve"/>
      <point x="236" y="436" type="line"/>
      <point x="236" y="500" type="line"/>
      <point x="106" y="500" type="line"/>
    </contour>
    <contour>
      <point x="366" y="522" type="move" name="aboveLC"/>
    </contour>
    <contour>
      <point x="242" y="-22" type="move" name="belowLC"/>
    </contour>
  </outline>
</glyph>
<glyph name="n.sups" format="1">
  <advance width="376"/>
  <outline>
    <contour>
      <point x="38" y="260" type="line"/>
      <point x="150" y="260" type="line"/>
      <point x="191" y="470" type="line"/>
      <point x="213" y="494"/>
      <point x="229" y="506"/>
      <point x="247" y="506" type="curve" smooth="yes"/>
      <point x="263" y="506"/>
      <point x="272" y="497"/>
      <point x="272" y="479" type="curve" smooth="yes"/>
      <point x="272" y="472"/>
      <point x="271" y="463"/>
      <point x="268" y="451" type="curve" smooth="yes"/>
      <point x="230" y="260" type="line"/>
      <point x="342" y="260" type="line"/>
      <point x="383" y="465" type="line"/>
      <point x="385" y="479"/>
      <point x="389" y="496"/>
      <point x="389" y="511" type="curve" smooth="yes"/>
      <point x="389" y="568"/>
      <point x="363" y="600"/>
      <point x="308" y="600" type="curve" smooth="yes"/>
      <point x="265" y="600"/>
      <point x="228" y="576"/>
      <point x="198" y="548" type="curve"/>
      <point x="194" y="548" type="line"/>
      <point x="194" y="592" type="line"/>
      <point x="104" y="592" type="line"/>
    </contour>
  </outline>
</glyph>
<glyph name="naira" format="1">
  <advance width="520"/>
  <outline>
    <contour>
      <point x="16" y="0" type="line"/>
      <point x="134" y="0" type="line"/>
      <point x="178" y="228" type="line"/>
      <point x="204" y="526" type="line"/>
      <point x="208" y="526" type="line"/>
      <point x="228" y="234" type="line"/>
      <point x="252" y="0" type="line"/>
      <point x="398" y="0" type="line"/>
      <point x="526" y="644" type="line"/>
      <point x="408" y="644" type="line"/>
      <point x="364" y="414" type="line"/>
      <point x="338" y="118" type="line"/>
      <point x="334" y="118" type="line"/>
      <point x="314" y="410" type="line"/>
      <point x="292" y="644" type="line"/>
      <point x="144" y="644" type="line"/>
    </contour>
    <contour>
      <point x="20" y="344" type="line"/>
      <point x="532" y="344" type="line"/>
      <point x="546" y="406" type="line"/>
      <point x="100" y="406" type="line"/>
      <point x="30" y="400" type="line"/>
    </contour>
    <contour>
      <point x="-2" y="238" type="line"/>
      <point x="512" y="238" type="line"/>
      <point x="524" y="300" type="line"/>
      <point x="78" y="300" type="line"/>
      <point x="10" y="294" type="line"/>
    </contour>
  </outline>
</glyph>
<glyph name="nje" format="1">
  <advance width="785"/>
  <outline>
    <contour>
      <point x="8" y="0" type="line"/>
      <point x="168" y="0" type="line"/>
      <point x="204" y="184" type="line"/>
      <point x="345" y="184" type="line"/>
      <point x="372" y="322" type="line"/>
      <point x="232" y="322" type="line"/>
      <point x="268" y="500" type="line"/>
      <point x="108" y="500" type="line"/>
    </contour>
    <contour>
      <point x="526" y="-12" type="curve" smooth="yes"/>
      <point x="644" y="-12"/>
      <point x="742" y="71"/>
      <point x="742" y="198" type="curve" smooth="yes"/>
      <point x="742" y="284"/>
      <point x="690" y="342"/>
      <point x="596" y="342" type="curve" smooth="yes"/>
      <point x="565" y="342"/>
      <point x="550" y="338"/>
      <point x="520" y="328" type="curve"/>
      <point x="554" y="500" type="line"/>
      <point x="394" y="500" type="line"/>
      <point x="338" y="216" type="line" smooth="yes"/>
      <point x="335" y="200"/>
      <point x="332" y="187"/>
      <point x="332" y="168" type="curve" smooth="yes"/>
      <point x="332" y="55"/>
      <point x="408" y="-12"/>
    </contour>
    <contour>
      <point x="538" y="108" type="curve" smooth="yes"/>
      <point x="510" y="108"/>
      <point x="488" y="129"/>
      <point x="488" y="160" type="curve" smooth="yes"/>
      <point x="488" y="176"/>
      <point x="492" y="190"/>
      <point x="496" y="210" type="curve"/>
      <point x="518" y="220"/>
      <point x="528" y="224"/>
      <point x="544" y="224" type="curve" smooth="yes"/>
      <point x="577" y="224"/>
      <point x="596" y="206"/>
      <point x="596" y="174" type="curve" smooth="yes"/>
      <point x="596" y="138"/>
      <point x="577" y="108"/>
    </contour>
  </outline>
</glyph>
<glyph name="notequal" format="1">
  <advance width="520"/>
  <outline>
    <contour>
      <point x="496" y="154" type="line"/>
      <point x="496" y="266" type="line"/>
      <point x="286" y="266" type="line"/>
      <point x="358" y="394" type="line"/>
      <point x="496" y="394" type="line"/>
      <point x="496" y="506" type="line"/>
      <point x="416" y="506" type="line"/>
      <point x="486" y="626" type="line"/>
      <point x="386" y="626" type="line"/>
      <point x="316" y="506" type="line"/>
      <point x="48" y="506" type="line"/>
      <point x="48" y="394" type="line"/>
      <point x="258" y="394" type="line"/>
      <point x="186" y="266" type="line"/>
      <point x="48" y="266" type="line"/>
      <point x="48" y="154" type="line"/>
      <point x="128" y="154" type="line"/>
      <point x="58" y="34" type="line"/>
      <point x="158" y="34" type="line"/>
      <point x="228" y="154" type="line"/>
    </contour>
  </outline>
</glyph>
<glyph name="o.sups" format="1">
  <advance width="362"/>
  <outline>
    <contour>
      <point x="186" y="252" type="curve" smooth="yes"/>
      <point x="282" y="252"/>
      <point x="376" y="334"/>
      <point x="376" y="461" type="curve" smooth="yes"/>
      <point x="376" y="549"/>
      <point x="316" y="600"/>
      <point x="240" y="600" type="curve" smooth="yes"/>
      <point x="144" y="600"/>
      <point x="50" y="518"/>
      <point x="50" y="391" type="curve" smooth="yes"/>
      <point x="50" y="303"/>
      <point x="110" y="252"/>
    </contour>
    <contour>
      <point x="230" y="512" type="curve" smooth="yes"/>
      <point x="254" y="512"/>
      <point x="264" y="492"/>
      <point x="264" y="460" type="curve" smooth="yes"/>
      <point x="264" y="392"/>
      <point x="238" y="340"/>
      <point x="196" y="340" type="curve" smooth="yes"/>
      <point x="172" y="340"/>
      <point x="162" y="360"/>
      <point x="162" y="392" type="curve" smooth="yes"/>
      <point x="162" y="460"/>
      <point x="188" y="512"/>
    </contour>
  </outline>
</glyph>
<glyph name="ocyr" format="1">
  <advance width="540"/>
  <outline>
    <component base="o"/>
    <contour>
      <point x="334.0" y="522.0" type="move" name="aboveLC"/>
    </contour>
    <contour>
      <point x="202.0" y="-22.0" type="move" name="belowLC"/>
    </contour>
    <contour>
      <point x="420.0" y="500.0" type="move" name="hornLC"/>
    </contour>
    <contour>
      <point x="216.0" y="0.0" type="move" name="ogonekLC"/>
    </contour>
  </outline>
</glyph>
<glyph name="oe" format="1">
  <advance width="792"/>
  <outline>
    <contour>
      <point x="216" y="-12" type="curve" smooth="yes"/>
      <point x="276" y="-12"/>
      <point x="338" y="18"/>
      <point x="386" y="74" type="curve"/>
      <point x="416" y="18"/>
      <point x="466" y="-12"/>
      <point x="524" y="-12" type="curve" smooth="yes"/>
      <point x="606" y="-12"/>
      <point x="670" y="12"/>
      <point x="710" y="40" type="curve"/>
      <point x="654" y="140" type="line"/>
      <point x="632" y="124"/>
      <point x="598" y="108"/>
      <point x="570" y="108" type="curve" smooth="yes"/>
      <point x="518" y="108"/>
      <point x="478" y="136"/>
      <point x="476" y="202" type="curve"/>
      <point x="736" y="202" type="line"/>
      <point x="744" y="216"/>
      <point x="764" y="272"/>
      <point x="764" y="322" type="curve" smooth="yes"/>
      <point x="764" y="426"/>
      <point x="720" y="512"/>
      <point x="598" y="512" type="curve" smooth="yes"/>
      <point x="544" y="512"/>
      <point x="484" y="482"/>
      <point x="438" y="428" type="curve"/>
      <point x="408" y="482"/>
      <point x="370" y="512"/>
      <point x="300" y="512" type="curve" smooth="yes"/>
      <point x="170" y="512"/>
      <point x="26" y="390"/>
      <point x="26" y="196" type="curve" smooth="yes"/>
      <point x="26" y="72"/>
      <point x="102" y="-12"/>
    </contour>
    <contour>
      <point x="282" y="384" type="curve" smooth="yes"/>
      <point x="320" y="384"/>
      <point x="338" y="352"/>
      <point x="338" y="302" type="curve" smooth="yes"/>
      <point x="338" y="194"/>
      <point x="296" y="116"/>
      <point x="244" y="116" type="curve" smooth="yes"/>
      <point x="206" y="116"/>
      <point x="188" y="148"/>
      <point x="188" y="198" type="curve" smooth="yes"/>
      <point x="188" y="306"/>
      <point x="234" y="384"/>
    </contour>
    <contour>
      <point x="488" y="298" type="line"/>
      <point x="508" y="362"/>
      <point x="544" y="390"/>
      <point x="578" y="390" type="curve" smooth="yes"/>
      <point x="620" y="390"/>
      <point x="634" y="364"/>
      <point x="634" y="330" type="curve" smooth="yes"/>
      <point x="634" y="318"/>
      <point x="632" y="306"/>
      <point x="630" y="298" type="curve"/>
    </contour>
    <contour>
      <point x="440" y="502" type="move" name="aboveLC"/>
    </contour>
  </outline>
</glyph>
<glyph name="ogonekcmb" format="1">
  <advance width="0"/>
  <outline>
    <contour>
      <point x="-124" y="-136" type="curve" smooth="yes"/>
      <point x="-124" y="-186"/>
      <point x="-86" y="-212"/>
      <point x="-34" y="-212" type="curve" smooth="yes"/>
      <point x="2" y="-212"/>
      <point x="50" y="-194"/>
      <point x="80" y="-172" type="curve"/>
      <point x="54" y="-108" type="line"/>
      <point x="44" y="-114"/>
      <point x="34" y="-118"/>
      <point x="24" y="-118" type="curve" smooth="yes"/>
      <point x="6" y="-118"/>
      <point x="-10" y="-108"/>
      <point x="-10" y="-90" type="curve" smooth="yes"/>
      <point x="-10" y="-62"/>
      <point x="8" y="-34"/>
      <point x="56" y="2" type="curve"/>
      <point x="-30" y="2" type="line"/>
      <point x="-60" y="-18"/>
      <point x="-124" y="-70"/>
    </contour>
    <contour>
      <point x="0" y="0" type="move" name="_ogonekLC"/>
    </contour>
  </outline>
</glyph>
<glyph name="one" format="1">
  <advance width="520"/>
  <outline>
    <contour>
      <point x="16" y="0" type="line"/>
      <point x="416" y="0" type="line"/>
      <point x="442" y="128" type="line"/>
      <point x="330" y="128" type="line"/>
      <point x="432" y="634" type="line"/>
      <point x="314" y="634" type="line"/>
      <point x="264" y="604"/>
      <point x="218" y="586"/>
      <point x="144" y="574" type="curve"/>
      <point x="124" y="474" type="line"/>
      <point x="240" y="474" type="line"/>
      <point x="170" y="128" type="line"/>
      <point x="42" y="128" type="line"/>
    </contour>
  </outline>
</glyph>
<glyph name="one.pnum" format="1">
  <advance width="392"/>
  <outline>
    <contour>
      <point x="240" y="0" type="line"/>
      <point x="368" y="634" type="line"/>
      <point x="250" y="634" type="line"/>
      <point x="200" y="604"/>
      <point x="154" y="586"/>
      <point x="80" y="574" type="curve"/>
      <point x="60" y="474" type="line"/>
      <point x="176" y="474" type="line"/>
      <point x="80" y="0" type="line"/>
    </contour>
  </outline>
</glyph>
<glyph name="oslash" format="1">
  <advance width="540"/>
  <outline>
    <contour>
      <point x="226" y="-12" type="curve" smooth="yes"/>
      <point x="364" y="-12"/>
      <point x="510" y="108"/>
      <point x="510" y="304" type="curve" smooth="yes"/>
      <point x="510" y="436"/>
      <point x="422" y="512"/>
      <point x="310" y="512" type="curve" smooth="yes"/>
      <point x="172" y="512"/>
      <point x="26" y="390"/>
      <point x="26" y="196" type="curve" smooth="yes"/>
      <point x="26" y="64"/>
      <point x="114" y="-12"/>
    </contour>
    <contour>
      <point x="238" y="112" type="curve" smooth="yes"/>
      <point x="194" y="112"/>
      <point x="176" y="150"/>
      <point x="176" y="198" type="curve" smooth="yes"/>
      <point x="176" y="280"/>
      <point x="213" y="388"/>
      <point x="298" y="388" type="curve" smooth="yes"/>
      <point x="338" y="388"/>
      <point x="360" y="350"/>
      <point x="360" y="300" type="curve" smooth="yes"/>
      <point x="360" y="218"/>
      <point x="326" y="112"/>
    </contour>
    <contour>
      <point x="48" y="-26" type="line"/>
      <point x="540" y="480" type="line"/>
      <point x="490" y="524" type="line"/>
      <point x="0" y="20" type="line"/>
    </contour>
    <contour>
      <point x="334" y="522" type="move" name="aboveLC"/>
    </contour>
  </outline>
</glyph>
<glyph name="p.sups" format="1">
  <advance width="373"/>
  <outline>
    <contour>
      <point x="144" y="294" type="line"/>
      <point x="148" y="294" type="line"/>
      <point x="160" y="269"/>
      <point x="185" y="252"/>
      <point x="212" y="252" type="curve" smooth="yes"/>
      <point x="304" y="252"/>
      <point x="390" y="352"/>
      <point x="390" y="478" type="curve" smooth="yes"/>
      <point x="390" y="556"/>
      <point x="354" y="600"/>
      <point x="296" y="600" type="curve" smooth="yes"/>
      <point x="264" y="600"/>
      <point x="232" y="584"/>
      <point x="202" y="556" type="curve"/>
      <point x="198" y="556" type="line"/>
      <point x="194" y="592" type="line"/>
      <point x="104" y="592" type="line"/>
      <point x="12" y="128" type="line"/>
      <point x="124" y="128" type="line"/>
      <point x="143" y="225" type="line"/>
    </contour>
    <contour>
      <point x="248" y="510" type="curve" smooth="yes"/>
      <point x="264" y="510"/>
      <point x="276" y="496"/>
      <point x="276" y="464" type="curve" smooth="yes"/>
      <point x="276" y="392"/>
      <point x="237" y="341"/>
      <point x="201" y="341" type="curve" smooth="yes"/>
      <point x="189" y="341"/>
      <point x="178" y="350"/>
      <point x="172" y="366" type="curve"/>
      <point x="190" y="468" type="line"/>
      <point x="208" y="502"/>
      <point x="230" y="510"/>
    </contour>
  </outline>
</glyph>
<glyph name="parenleft" format="1">
  <advance width="344"/>
  <outline>
    <contour>
      <point x="112" y="-180" type="curve"/>
      <point x="214" y="-138" type="line"/>
      <point x="190" y="-68"/>
      <point x="180" y="38"/>
      <point x="180" y="120" type="curve" smooth="yes"/>
      <point x="180" y="308"/>
      <point x="240" y="498"/>
      <point x="380" y="688" type="curve"/>
      <point x="288" y="734" type="line"/>
      <point x="134" y="540"/>
      <point x="52" y="362"/>
      <point x="52" y="130" type="curve" smooth="yes"/>
      <point x="52" y="22"/>
      <point x="82" y="-96"/>
    </contour>
  </outline>
</glyph>
<glyph name="parenright" format="1">
  <advance width="346"/>
  <outline>
    <contour>
      <point x="240" y="734" type="curve"/>
      <point x="138" y="692" type="line"/>
      <point x="162" y="622"/>
      <point x="172" y="516"/>
      <point x="172" y="434" type="curve" smooth="yes"/>
      <point x="172" y="246"/>
      <point x="112" y="56"/>
      <point x="-28" y="-134" type="curve"/>
      <point x="64" y="-180" type="line"/>
      <point x="218" y="14"/>
      <point x="300" y="192"/>
      <point x="300" y="424" type="curve" smooth="yes"/>
      <point x="300" y="532"/>
      <point x="270" y="650"/>
    </contour>
  </outline>
</glyph>
<glyph name="pe" format="1">
  <advance width="562"/>
  <outline>
    <component base="n"/>
    <contour>
      <point x="366.0" y="522.0" type="move" name="aboveLC"/>
    </contour>
    <contour>
      <point x="242.0" y="-22.0" type="move" name="belowLC"/>
    </contour>
  </outline>
</glyph>
<glyph name="perthousand" format="1">
  <advance width="1224"/>
  <outline>
    <contour>
      <point x="234" y="-12" type="line"/>
      <point x="704" y="672" type="line"/>
      <point x="614" y="672" type="line"/>
      <point x="144" y="-12" type="line"/>
    </contour>
    <contour>
      <point x="194" y="258" type="curve" smooth="yes"/>
      <point x="310" y="258"/>
      <point x="390" y="366"/>
      <point x="390" y="512" type="curve" smooth="yes"/>
      <point x="390" y="612"/>
      <point x="324" y="674"/>
      <point x="246" y="674" type="curve" smooth="yes"/>
      <point x="130" y="674"/>
      <point x="50" y="566"/>
      <point x="50" y="420" type="curve" smooth="yes"/>
      <point x="50" y="320"/>
      <point x="116" y="258"/>
    </contour>
    <contour>
      <point x="236" y="580" type="curve" smooth="yes"/>
      <point x="264" y="580"/>
      <point x="278" y="554"/>
      <point x="278" y="510" type="curve" smooth="yes"/>
      <point x="278" y="412"/>
      <point x="244" y="352"/>
      <point x="204" y="352" type="curve" smooth="yes"/>
      <point x="176" y="352"/>
      <point x="162" y="378"/>
      <point x="162" y="422" type="curve" smooth="yes"/>
      <point x="162" y="520"/>
      <point x="196" y="580"/>
    </contour>
    <contour>
      <point x="614" y="-12" type="curve" smooth="yes"/>
      <point x="730" y="-12"/>
      <point x="810" y="96"/>
      <point x="810" y="242" type="curve" smooth="yes"/>
      <point x="810" y="342"/>
      <point x="744" y="404"/>
      <point x="666" y="404" type="curve" smooth="yes"/>
      <point x="550" y="404"/>
      <point x="470" y="296"/>
      <point x="470" y="150" type="curve" smooth="yes"/>
      <point x="470" y="50"/>
      <point x="536" y="-12"/>
    </contour>
    <contour>
      <point x="656" y="310" type="curve" smooth="yes"/>
      <point x="684" y="310"/>
      <point x="698" y="284"/>
      <point x="698" y="240" type="curve" smooth="yes"/>
      <point x="698" y="142"/>
      <point x="664" y="82"/>
      <point x="624" y="82" type="curve" smooth="yes"/>
      <point x="596" y="82"/>
      <point x="582" y="108"/>
      <point x="582" y="152" type="curve" smooth="yes"/>
      <point x="582" y="250"/>
      <point x="616" y="310"/>
    </contour>
    <contour>
      <point x="994" y="-12" type="curve" smooth="yes"/>
      <point x="1110" y="-12"/>
      <point x="1190" y="96"/>
      <point x="1190" y="242" type="curve" smooth="yes"/>
      <point x="1190" y="342"/>
      <point x="1124" y="404"/>
      <point x="1046" y="404" type="curve" smooth="yes"/>
      <point x="930" y="404"/>
      <point x="850" y="296"/>
      <point x="850" y="150" type="curve" smooth="yes"/>
      <point x="850" y="50"/>
      <point x="916" y="-12"/>
    </contour>
    <contour>
      <point x="1036" y="310" type="curve" smooth="yes"/>
      <point x="1064" y="310"/>
      <point x="1078" y="284"/>
      <point x="1078" y="240" type="curve" smooth="yes"/>
      <point x="1078" y="142"/>
      <point x="1044" y="82"/>
      <point x="1004" y="82" type="curve" smooth="yes"/>
      <point x="976" y="82"/>
      <point x="962" y="108"/>
      <point x="962" y="152" type="curve" smooth="yes"/>
      <point x="962" y="250"/>
      <point x="996" y="310"/>
    </contour>
  </outline>
</glyph>
<glyph name="phi.002" format="1">
  <advance width="718"/>
  <outline>
    <contour>
      <point x="428" y="272" type="curve" smooth="yes"/>
      <point x="443" y="332"/>
      <point x="464" y="364"/>
      <point x="494" y="364" type="curve" smooth="yes"/>
      <point x="515" y="364"/>
      <point x="528" y="347"/>
      <point x="528" y="314" type="curve" smooth="yes"/>
      <point x="528" y="180"/>
      <point x="466" y="112"/>
      <point x="394" y="110" type="curve"/>
      <point x="360" y="-8" type="line"/>
      <point x="530" y="-6"/>
      <point x="690" y="98"/>
      <point x="690" y="320" type="curve" smooth="yes"/>
      <point x="690" y="424"/>
      <point x="616" y="492"/>
      <point x="514" y="492" type="curve" smooth="yes"/>
      <point x="407" y="492"/>
      <point x="320" y="428"/>
      <point x="284" y="255" type="curve"/>
      <point x="199" y="-176" type="line"/>
      <point x="352" y="-176" type="line"/>
      <point x="366" y="-68"/>
      <point x="399" y="124"/>
    </contour>
    <contour>
      <point x="24" y="224" type="curve" smooth="yes"/>
      <point x="24" y="64"/>
      <point x="144" y="-6"/>
      <point x="282" y="-8" type="curve"/>
      <point x="286" y="110" type="line"/>
      <point x="224" y="112"/>
      <point x="186" y="150"/>
      <point x="186" y="226" type="curve" smooth="yes"/>
      <point x="186" y="310"/>
      <point x="249" y="442"/>
      <point x="492" y="368" type="curve"/>
      <point x="524" y="486" type="line"/>
      <point x="229" y="582"/>
      <point x="24" y="400"/>
    </contour>
  </outline>
</glyph>
<glyph name="phi.alt" format="1">
  <advance width="723"/>
  <outline>
    <contour>
      <point x="24" y="224" type="curve" smooth="yes"/>
      <point x="24" y="64"/>
      <point x="144" y="-6"/>
      <point x="282" y="-8" type="curve"/>
      <point x="286" y="110" type="line"/>
      <point x="224" y="112"/>
      <point x="186" y="150"/>
      <point x="186" y="226" type="curve" smooth="yes"/>
      <point x="186" y="310"/>
      <point x="250" y="382"/>
      <point x="322" y="388" type="curve"/>
      <point x="354" y="506" type="line"/>
      <point x="186" y="502"/>
      <point x="24" y="402"/>
    </contour>
    <contour>
      <point x="203" y="-176" type="line"/>
      <point x="347" y="-176" type="line"/>
      <point x="509" y="630" type="line"/>
      <point x="365" y="630" type="line"/>
    </contour>
    <contour>
      <point x="696" y="274" type="curve" smooth="yes"/>
      <point x="696" y="434"/>
      <point x="576" y="504"/>
      <point x="438" y="506" type="curve"/>
      <point x="434" y="388" type="line"/>
      <point x="496" y="386"/>
      <point x="534" y="348"/>
      <point x="534" y="272" type="curve" smooth="yes"/>
      <point x="534" y="188"/>
      <point x="470" y="116"/>
      <point x="398" y="110" type="curve"/>
      <point x="366" y="-8" type="line"/>
      <point x="534" y="-4"/>
      <point x="696" y="96"/>
    </contour>
  </outline>
</glyph>
<glyph name="pi" format="1">
  <advance width="598"/>
  <outline>
    <contour>
      <point x="50" y="0" type="line"/>
      <point x="208" y="0" type="line"/>
      <point x="282" y="372" type="line"/>
      <point x="374" y="372" type="line"/>
      <point x="330" y="142" type="line" smooth="yes"/>
      <point x="312" y="58"/>
      <point x="344" y="-12"/>
      <point x="452" y="-12" type="curve" smooth="yes"/>
      <point x="484" y="-12"/>
      <point x="510" y="-6"/>
      <point x="528" y="2" type="curve"/>
      <point x="524" y="116" type="line"/>
      <point x="518" y="114"/>
      <point x="510" y="112"/>
      <point x="502" y="112" type="curve" smooth="yes"/>
      <point x="486" y="112"/>
      <point x="484" y="126"/>
      <point x="490" y="156" type="curve" smooth="yes"/>
      <point x="534" y="372" type="line"/>
      <point x="596" y="372" type="line"/>
      <point x="622" y="498" type="line"/>
      <point x="140" y="498" type="line"/>
      <point x="66" y="492" type="line"/>
      <point x="42" y="372" type="line"/>
      <point x="124" y="372" type="line"/>
    </contour>
  </outline>
</glyph>
<glyph name="plusminus" format="1">
  <advance width="520"/>
  <outline>
    <contour>
      <point x="212" y="164" type="line"/>
      <point x="328" y="164" type="line"/>
      <point x="328" y="310" type="line"/>
      <point x="496" y="310" type="line"/>
      <point x="496" y="422" type="line"/>
      <point x="330" y="422" type="line"/>
      <point x="330" y="568" type="line"/>
      <point x="214" y="568" type="line"/>
      <point x="214" y="422" type="line"/>
      <point x="48" y="422" type="line"/>
      <point x="48" y="310" type="line"/>
      <point x="212" y="310" type="line"/>
    </contour>
    <contour>
      <point x="496" y="0" type="line"/>
      <point x="496" y="112" type="line"/>
      <point x="48" y="112" type="line"/>
      <point x="48" y="0" type="line"/>
    </contour>
  </outline>
</glyph>
<glyph name="prime" format="1">
  <advance width="310"/>
  <outline>
    <contour>
      <point x="88" y="324" type="line"/>
      <point x="192" y="324" type="line"/>
      <point x="286" y="530" type="line"/>
      <point x="340" y="684" type="line"/>
      <point x="182" y="684" type="line"/>
    </contour>
  </outline>
</glyph>
<glyph name="primemod" format="1">
  <advance width="310"/>
  <outline>
    <contour>
      <point x="88" y="324" type="line"/>
      <point x="192" y="324" type="line"/>
      <point x="286" y="530" type="line"/>
      <point x="340" y="684" type="line"/>
      <point x="182" y="684" type="line"/>
    </contour>
  </outline>
</glyph>
<glyph name="product" format="1">
  <advance width="694"/>
  <outline>
    <contour>
      <point x="0" y="-120" type="line"/>
      <point x="160" y="-120" type="line"/>
      <point x="282" y="494" type="line"/>
      <point x="508" y="494" type="line"/>
      <point x="386" y="-120" type="line"/>
      <point x="546" y="-120" type="line"/>
      <point x="694" y="634" type="line"/>
      <point x="150" y="634" type="line"/>
    </contour>
  </outline>
</glyph>
<glyph name="quotesingle" format="1">
  <advance width="310"/>
  <outline>
    <contour>
      <point x="118" y="338" type="line"/>
      <point x="222" y="338" type="line"/>
      <point x="284" y="530" type="line"/>
      <point x="316" y="670" type="line"/>
      <point x="158" y="670" type="line"/>
      <point x="138" y="530" type="line"/>
    </contour>
  </outline>
</glyph>
<glyph name="ringcmb.cap" format="1">
  <advance width="0"/>
  <outline>
    <contour>
      <point x="132" y="696" type="curve" smooth="yes"/>
      <point x="204.0" y="696.0"/>
      <point x="262.0" y="746.0"/>
      <point x="262" y="810" type="curve" smooth="yes"/>
      <point x="262.0" y="870.0"/>
      <point x="206.93220339" y="898.0"/>
      <point x="148" y="898" type="curve" smooth="yes"/>
      <point x="77.0" y="898.0"/>
      <point x="18.0" y="846.0"/>
      <point x="18" y="784" type="curve" smooth="yes"/>
      <point x="18.0" y="722.0"/>
      <point x="71.1355932203" y="696.0"/>
    </contour>
    <contour>
      <point x="134" y="756" type="curve" smooth="yes"/>
      <point x="113.294117647" y="756.0"/>
      <point x="102.0" y="772.0"/>
      <point x="102" y="790" type="curve" smooth="yes"/>
      <point x="102.0" y="814.0"/>
      <point x="121.0" y="838.0"/>
      <point x="146" y="838" type="curve" smooth="yes"/>
      <point x="167.0" y="838.0"/>
      <point x="178.0" y="822.0"/>
      <point x="178" y="804" type="curve" smooth="yes"/>
      <point x="178.0" y="778.0"/>
      <point x="157.047619048" y="756.0"/>
    </contour>
    <contour>
      <point x="136" y="682" type="move" name="_aboveUC"/>
    </contour>
  </outline>
</glyph>
<glyph name="ringcmb" format="1">
  <advance width="0"/>
  <outline>
    <contour>
      <point x="124" y="548" type="curve" smooth="yes"/>
      <point x="192" y="548"/>
      <point x="242" y="598"/>
      <point x="242" y="664" type="curve" smooth="yes"/>
      <point x="242" y="722"/>
      <point x="198" y="756"/>
      <point x="136" y="756" type="curve" smooth="yes"/>
      <point x="68" y="756"/>
      <point x="18" y="706"/>
      <point x="18" y="640" type="curve" smooth="yes"/>
      <point x="18" y="582"/>
      <point x="62" y="548"/>
    </contour>
    <contour>
      <point x="134" y="696" type="curve" smooth="yes"/>
      <point x="156" y="696"/>
      <point x="166" y="678"/>
      <point x="166" y="660" type="curve" smooth="yes"/>
      <point x="166" y="632"/>
      <point x="148" y="608"/>
      <point x="126" y="608" type="curve" smooth="yes"/>
      <point x="104" y="608"/>
      <point x="94" y="624"/>
      <point x="94" y="644" type="curve" smooth="yes"/>
      <point x="94" y="672"/>
      <point x="112" y="696"/>
    </contour>
    <contour>
      <point x="114" y="522" type="move" name="_aboveLC"/>
    </contour>
  </outline>
</glyph>
<glyph name="seven.dnom" format="1">
  <advance width="368"/>
  <outline>
    <contour>
      <point x="56" y="0" type="curve"/>
      <point x="180" y="0" type="line"/>
      <point x="210" y="130"/>
      <point x="246" y="222"/>
      <point x="354" y="328" type="curve"/>
      <point x="364" y="390" type="line"/>
      <point x="76" y="390" type="line"/>
      <point x="58" y="292" type="line"/>
      <point x="216" y="292" type="line"/>
      <point x="134" y="200"/>
      <point x="86" y="118"/>
    </contour>
  </outline>
</glyph>
<glyph name="sigma.end" format="1">
  <advance width="466"/>
  <outline>
    <contour>
      <point x="26" y="196" type="curve" smooth="yes"/>
      <point x="26" y="66"/>
      <point x="96" y="18"/>
      <point x="182" y="-8" type="curve" smooth="yes"/>
      <point x="224" y="-20"/>
      <point x="242" y="-31"/>
      <point x="242" y="-56" type="curve" smooth="yes"/>
      <point x="242" y="-90"/>
      <point x="216" y="-122"/>
      <point x="194" y="-146" type="curve"/>
      <point x="296" y="-188" type="line"/>
      <point x="344" y="-136"/>
      <point x="392" y="-65"/>
      <point x="392" y="-2" type="curve" smooth="yes"/>
      <point x="392" y="58"/>
      <point x="364" y="86"/>
      <point x="280" y="112" type="curve"/>
      <point x="216" y="134"/>
      <point x="190" y="155"/>
      <point x="190" y="208" type="curve" smooth="yes"/>
      <point x="190" y="300"/>
      <point x="244" y="384"/>
      <point x="316" y="384" type="curve" smooth="yes"/>
      <point x="340" y="384"/>
      <point x="356" y="374"/>
      <point x="374" y="356" type="curve"/>
      <point x="462" y="450" type="line"/>
      <point x="438" y="480"/>
      <point x="390" y="512"/>
      <point x="326" y="512" type="curve" smooth="yes"/>
      <point x="154" y="512"/>
      <point x="26" y="364"/>
    </contour>
  </outline>
</glyph>
<glyph name="slash" format="1">
  <advance width="324"/>
  <outline>
    <contour>
      <point x="-68" y="-160" type="line"/>
      <point x="34" y="-160" type="line"/>
      <point x="384" y="710" type="line"/>
      <point x="280" y="710" type="line"/>
    </contour>
  </outline>
</glyph>
<glyph name="squareblack" format="1">
  <advance width="342"/>
  <outline>
    <contour>
      <point x="50" y="386" type="line"/>
      <point x="50" y="138" type="line"/>
      <point x="292" y="138" type="line"/>
      <point x="292" y="386" type="line"/>
    </contour>
  </outline>
</glyph>
<glyph name="squareshadow" format="1">
  <advance width="408"/>
  <outline>
    <contour>
      <point x="52" y="98" type="line"/>
      <point x="300" y="98" type="line"/>
      <point x="358" y="166" type="line"/>
      <point x="358" y="416" type="line"/>
      <point x="118" y="416" type="line"/>
      <point x="52" y="358" type="line"/>
    </contour>
    <contour>
      <point x="278" y="334" type="line"/>
      <point x="278" y="150" type="line"/>
      <point x="102" y="150" type="line"/>
      <point x="102" y="334" type="line"/>
    </contour>
  </outline>
</glyph>
<glyph name="summation" format="1">
  <advance width="522"/>
  <outline>
    <contour>
      <point x="-30" y="-28" type="line"/>
      <point x="-48" y="-120" type="line"/>
      <point x="436" y="-120" type="line"/>
      <point x="464" y="14" type="line"/>
      <point x="182" y="14" type="line"/>
      <point x="182" y="18" type="line"/>
      <point x="380" y="258" type="line"/>
      <point x="282" y="496" type="line"/>
      <point x="282" y="500" type="line"/>
      <point x="540" y="500" type="line"/>
      <point x="566" y="634" type="line"/>
      <point x="114" y="634" type="line"/>
      <point x="96" y="540" type="line"/>
      <point x="222" y="270" type="line"/>
    </contour>
  </outline>
</glyph>
<glyph name="tildecmb.cap" format="1">
  <advance width="0"/>
  <outline>
    <contour>
      <point x="32" y="700" type="line"/>
      <point x="45" y="730"/>
      <point x="58" y="742"/>
      <point x="72" y="742" type="curve" smooth="yes"/>
      <point x="112" y="742"/>
      <point x="128" y="698"/>
      <point x="189" y="698" type="curve" smooth="yes"/>
      <point x="238" y="698"/>
      <point x="292" y="744"/>
      <point x="318" y="838" type="curve"/>
      <point x="236" y="838" type="line"/>
      <point x="223" y="808"/>
      <point x="210" y="796"/>
      <point x="196" y="796" type="curve" smooth="yes"/>
      <point x="156" y="796"/>
      <point x="140" y="840"/>
      <point x="79" y="840" type="curve" smooth="yes"/>
      <point x="30" y="840"/>
      <point x="-24" y="794"/>
      <point x="-50" y="700" type="curve"/>
    </contour>
    <contour>
      <point x="136" y="682" type="move" name="_aboveUC"/>
    </contour>
  </outline>
</glyph>
<glyph name="tonos.cap" format="1">
  <advance width="128"/>
  <outline>
    <contour>
      <point x="125" y="436" type="line"/>
      <point x="234" y="661" type="line"/>
      <point x="96" y="661" type="line"/>
      <point x="22" y="436" type="line"/>
    </contour>
  </outline>
</glyph>
<glyph name="triangleblackdown" format="1">
  <advance width="574"/>
  <outline>
    <contour>
      <point x="288" y="16" type="line"/>
      <point x="556" y="544" type="line"/>
      <point x="556" y="546" type="line"/>
      <point x="18" y="546" type="line"/>
      <point x="18" y="544" type="line"/>
      <point x="286" y="16" type="line"/>
    </contour>
  </outline>
</glyph>
<glyph name="triangleblackleft" format="1">
  <advance width="572"/>
  <outline>
    <contour>
      <point x="524" y="560" type="line"/>
      <point x="522" y="560" type="line"/>
      <point x="12" y="284" type="line"/>
      <point x="12" y="280" type="line"/>
      <point x="522" y="2" type="line"/>
      <point x="524" y="2" type="line"/>
    </contour>
  </outline>
</glyph>
<glyph name="triangleblackright" format="1">
  <advance width="572"/>
  <outline>
    <contour>
      <point x="562" y="284" type="line"/>
      <point x="52" y="560" type="line"/>
      <point x="50" y="560" type="line"/>
      <point x="50" y="2" type="line"/>
      <point x="52" y="2" type="line"/>
      <point x="562" y="280" type="line"/>
    </contour>
  </outline>
</glyph>
<glyph name="triangleblackup" format="1">
  <advance width="574"/>
  <outline>
    <contour>
      <point x="286" y="548" type="line"/>
      <point x="18" y="18" type="line"/>
      <point x="18" y="16" type="line"/>
      <point x="556" y="16" type="line"/>
      <point x="556" y="18" type="line"/>
      <point x="288" y="548" type="line"/>
    </contour>
  </outline>
</glyph>
<glyph name="trianglewhitedown" format="1">
  <advance width="574"/>
  <outline>
    <contour>
      <point x="557" y="546" type="line"/>
      <point x="18" y="546" type="line"/>
      <point x="18" y="544" type="line"/>
      <point x="285" y="16" type="line"/>
      <point x="289" y="16" type="line"/>
      <point x="557" y="544" type="line"/>
    </contour>
    <contour>
      <point x="382" y="444" type="line"/>
      <point x="287" y="236" type="line"/>
      <point x="193" y="444" type="line"/>
    </contour>
  </outline>
</glyph>
<glyph name="trianglewhiteleft" format="1">
  <advance width="572"/>
  <outline>
    <contour>
      <point x="232" y="282" type="line"/>
      <point x="422" y="385" type="line"/>
      <point x="422" y="178" type="line"/>
    </contour>
    <contour>
      <point x="524" y="561" type="line"/>
      <point x="522" y="561" type="line"/>
      <point x="12" y="284" type="line"/>
      <point x="12" y="280" type="line"/>
      <point x="522" y="3" type="line"/>
      <point x="524" y="3" type="line"/>
    </contour>
  </outline>
</glyph>
<glyph name="trianglewhiteright" format="1">
  <advance width="572"/>
  <outline>
    <contour>
      <point x="50" y="3" type="line"/>
      <point x="52" y="3" type="line"/>
      <point x="562" y="280" type="line"/>
      <point x="562" y="284" type="line"/>
      <point x="52" y="561" type="line"/>
      <point x="50" y="561" type="line"/>
    </contour>
    <contour>
      <point x="152" y="178" type="line"/>
      <point x="152" y="385" type="line"/>
      <point x="341" y="282" type="line"/>
    </contour>
  </outline>
</glyph>
<glyph name="trianglewhiteup" format="1">
  <advance width="574"/>
  <outline>
    <contour>
      <point x="18" y="18" type="line"/>
      <point x="557" y="18" type="line"/>
      <point x="557" y="20" type="line"/>
      <point x="289" y="547" type="line"/>
      <point x="285" y="547" type="line"/>
      <point x="18" y="20" type="line"/>
    </contour>
    <contour>
      <point x="193" y="120" type="line"/>
      <point x="287" y="327" type="line"/>
      <point x="382" y="120" type="line"/>
    </contour>
  </outline>
</glyph>
<glyph name="tse" format="1">
  <advance width="588"/>
  <outline>
    <contour>
      <point x="343" y="0" type="line"/>
      <point x="373" y="0" type="line"/>
      <point x="346" y="-172" type="line"/>
      <point x="470" y="-172" type="line"/>
      <point x="527" y="19" type="line"/>
      <point x="548" y="134" type="line"/>
      <point x="370" y="134" type="line"/>
    </contour>
    <component base="u"/>
  </outline>
</glyph>
<glyph name="u.sups" format="1">
  <advance width="370"/>
  <outline>
    <contour>
      <point x="400" y="592" type="line"/>
      <point x="288" y="592" type="line"/>
      <point x="247" y="382" type="line"/>
      <point x="225" y="358"/>
      <point x="211" y="346"/>
      <point x="193" y="346" type="curve" smooth="yes"/>
      <point x="177" y="346"/>
      <point x="168" y="355"/>
      <point x="168" y="373" type="curve" smooth="yes"/>
      <point x="168" y="380"/>
      <point x="169" y="389"/>
      <point x="172" y="401" type="curve" smooth="yes"/>
      <point x="210" y="592" type="line"/>
      <point x="98" y="592" type="line"/>
      <point x="57" y="387" type="line"/>
      <point x="55" y="373"/>
      <point x="51" y="356"/>
      <point x="51" y="341" type="curve" smooth="yes"/>
      <point x="51" y="284"/>
      <point x="77" y="252"/>
      <point x="132" y="252" type="curve" smooth="yes"/>
      <point x="175" y="252"/>
      <point x="210" y="276"/>
      <point x="240" y="304" type="curve"/>
      <point x="244" y="304" type="line"/>
      <point x="244" y="260" type="line"/>
      <point x="334" y="260" type="line"/>
    </contour>
  </outline>
</glyph>
<glyph name="ubar" format="1">
  <advance width="552"/>
  <outline>
    <contour>
      <point x="596" y="270" type="line"/>
      <point x="612" y="346" type="line"/>
      <point x="110" y="346" type="line"/>
      <point x="36" y="340" type="line"/>
      <point x="22" y="270" type="line"/>
    </contour>
    <component base="u" xOffset="34"/>
  </outline>
</glyph>
<glyph name="ucyr" format="1">
  <advance width="518"/>
  <outline>
    <component base="y"/>
    <contour>
      <point x="308.0" y="522.0" type="move" name="aboveLC"/>
    </contour>
  </outline>
</glyph>
<glyph name="uhorn" format="1">
  <advance width="576"/>
  <outline>
    <contour>
      <point x="528" y="445" type="line"/>
      <point x="606" y="467"/>
      <point x="652" y="513"/>
      <point x="652" y="578" type="curve" smooth="yes"/>
      <point x="652" y="600"/>
      <point x="648" y="622"/>
      <point x="638" y="644" type="curve"/>
      <point x="520" y="608" type="line"/>
      <point x="525" y="596"/>
      <point x="528" y="582"/>
      <point x="528" y="570" type="curve" smooth="yes"/>
      <point x="528" y="538"/>
      <point x="502" y="506"/>
      <point x="454" y="500" type="curve"/>
    </contour>
    <component base="u"/>
    <contour>
      <point x="332" y="522" type="move" name="aboveLC"/>
    </contour>
    <contour>
      <point x="250" y="-30" type="move" name="belowLC"/>
    </contour>
  </outline>
</glyph>
<glyph name="undertie" format="1">
  <advance width="0"/>
  <outline>
    <contour>
      <point x="-451" y="-35" type="curve"/>
      <point x="-506" y="-108" type="line"/>
      <point x="-390" y="-191"/>
      <point x="-242" y="-230"/>
      <point x="-91" y="-230" type="curve" smooth="yes"/>
      <point x="60" y="-230"/>
      <point x="224" y="-191"/>
      <point x="373" y="-108" type="curve"/>
      <point x="337" y="-35" type="line"/>
      <point x="201" y="-108"/>
      <point x="41" y="-130"/>
      <point x="-71" y="-130" type="curve" smooth="yes"/>
      <point x="-186" y="-130"/>
      <point x="-341" y="-108"/>
    </contour>
  </outline>
</glyph>
<glyph name="uogonek" format="1">
  <advance width="552"/>
  <outline>
    <contour>
      <point x="542" y="500" type="line"/>
      <point x="382" y="500" type="line"/>
      <point x="320" y="180" type="line"/>
      <point x="288" y="142"/>
      <point x="264" y="124"/>
      <point x="238" y="124" type="curve" smooth="yes"/>
      <point x="212" y="124"/>
      <point x="196" y="138"/>
      <point x="196" y="166" type="curve" smooth="yes"/>
      <point x="196" y="178"/>
      <point x="200" y="192"/>
      <point x="204" y="210" type="curve" smooth="yes"/>
      <point x="262" y="500" type="line"/>
      <point x="102" y="500" type="line"/>
      <point x="40" y="190" type="line" smooth="yes"/>
      <point x="35" y="166"/>
      <point x="32" y="140"/>
      <point x="32" y="118" type="curve" smooth="yes"/>
      <point x="32" y="32"/>
      <point x="68" y="-12"/>
      <point x="150" y="-12" type="curve" smooth="yes"/>
      <point x="210" y="-12"/>
      <point x="268" y="24"/>
      <point x="310" y="64" type="curve"/>
      <point x="314" y="64" type="line"/>
      <point x="314" y="0" type="line"/>
      <point x="288" y="-20"/>
      <point x="226" y="-70"/>
      <point x="226" y="-136" type="curve" smooth="yes"/>
      <point x="226" y="-186"/>
      <point x="264" y="-212"/>
      <point x="316" y="-212" type="curve" smooth="yes"/>
      <point x="352" y="-212"/>
      <point x="400" y="-194"/>
      <point x="430" y="-172" type="curve"/>
      <point x="404" y="-108" type="line"/>
      <point x="394" y="-114"/>
      <point x="384" y="-118"/>
      <point x="374" y="-118" type="curve" smooth="yes"/>
      <point x="356" y="-118"/>
      <point x="340" y="-108"/>
      <point x="340" y="-90" type="curve" smooth="yes"/>
      <point x="340" y="-50"/>
      <point x="380" y="-16"/>
      <point x="444" y="0" type="curve"/>
    </contour>
    <contour>
      <point x="332" y="522" type="move" name="aboveLC"/>
    </contour>
  </outline>
</glyph>
<glyph name="v.sups" format="1">
  <advance width="350"/>
  <outline>
    <contour>
      <point x="114" y="368" type="line"/>
      <point x="241" y="368" type="line"/>
      <point x="407" y="700" type="line"/>
      <point x="299" y="700" type="line"/>
      <point x="236" y="550" type="line"/>
      <point x="194" y="448" type="line"/>
      <point x="191" y="448" type="line"/>
      <point x="190" y="550" type="line"/>
      <point x="184" y="700" type="line"/>
      <point x="73" y="700" type="line"/>
    </contour>
  </outline>
</glyph>
<glyph name="ve" format="1">
  <advance width="522"/>
  <outline>
    <contour>
      <point x="310" y="512" type="curve" smooth="yes"/>
      <point x="162" y="512"/>
      <point x="26" y="390"/>
      <point x="26" y="196" type="curve" smooth="yes"/>
      <point x="26" y="72"/>
      <point x="94" y="-12"/>
      <point x="246" y="-12" type="curve" smooth="yes"/>
      <point x="362" y="-12"/>
      <point x="470" y="46"/>
      <point x="470" y="156" type="curve" smooth="yes"/>
      <point x="470" y="200"/>
      <point x="442" y="238"/>
      <point x="392" y="254" type="curve"/>
      <point x="392" y="258" type="line"/>
      <point x="453" y="278"/>
      <point x="488" y="328"/>
      <point x="488" y="378" type="curve" smooth="yes"/>
      <point x="488" y="469"/>
      <point x="405" y="512"/>
    </contour>
    <contour>
      <point x="262" y="106" type="curve" smooth="yes"/>
      <point x="203" y="106"/>
      <point x="178" y="135"/>
      <point x="178" y="208" type="curve" smooth="yes"/>
      <point x="178" y="316"/>
      <point x="216" y="390"/>
      <point x="280" y="390" type="curve" smooth="yes"/>
      <point x="311" y="390"/>
      <point x="328" y="377"/>
      <point x="328" y="349" type="curve" smooth="yes"/>
      <point x="328" y="324"/>
      <point x="303" y="306"/>
      <point x="260" y="306" type="curve" smooth="yes"/>
      <point x="167" y="306" type="line"/>
      <point x="146" y="202" type="line"/>
      <point x="260" y="202" type="line" smooth="yes"/>
      <point x="298" y="202"/>
      <point x="318" y="190"/>
      <point x="318" y="164" type="curve" smooth="yes"/>
      <point x="318" y="130"/>
      <point x="292" y="106"/>
    </contour>
  </outline>
</glyph>
<glyph name="verticallinelowmod" format="1">
  <advance width="150"/>
  <outline>
    <contour>
      <point x="68" y="-62" type="line"/>
      <point x="-40" y="-62" type="line"/>
      <point x="-90" y="-270" type="line"/>
      <point x="38" y="-270" type="line"/>
    </contour>
  </outline>
</glyph>
<glyph name="verticallinemod" format="1">
  <advance width="150"/>
  <outline>
    <contour>
      <point x="76" y="522" type="line"/>
      <point x="184" y="522" type="line"/>
      <point x="234" y="730" type="line"/>
      <point x="106" y="730" type="line"/>
    </contour>
  </outline>
</glyph>
<glyph name="w.sups" format="1">
  <advance width="514"/>
  <outline>
    <contour>
      <point x="94" y="260" type="line"/>
      <point x="219" y="260" type="line"/>
      <point x="266" y="379" type="line"/>
      <point x="296" y="470" type="line"/>
      <point x="299" y="470" type="line"/>
      <point x="296" y="379" type="line"/>
      <point x="297" y="260" type="line"/>
      <point x="426" y="260" type="line"/>
      <point x="563" y="592" type="line"/>
      <point x="461" y="592" type="line"/>
      <point x="408" y="447" type="line"/>
      <point x="377" y="347" type="line"/>
      <point x="374" y="347" type="line"/>
      <point x="378" y="447" type="line"/>
      <point x="369" y="592" type="line"/>
      <point x="279" y="592" type="line"/>
      <point x="217" y="447" type="line"/>
      <point x="183" y="347" type="line"/>
      <point x="180" y="347" type="line"/>
      <point x="187" y="447" type="line"/>
      <point x="190" y="592" type="line"/>
      <point x="81" y="592" type="line"/>
    </contour>
  </outline>
</glyph>
<glyph name="x.sups" format="1">
  <advance width="347"/>
  <outline>
    <contour>
      <point x="1" y="260" type="line"/>
      <point x="123" y="260" type="line"/>
      <point x="158" y="312" type="line"/>
      <point x="188" y="361" type="line"/>
      <point x="191" y="361" type="line"/>
      <point x="208" y="309" type="line"/>
      <point x="225" y="260" type="line"/>
      <point x="338" y="260" type="line"/>
      <point x="278" y="413" type="line"/>
      <point x="413" y="592" type="line"/>
      <point x="291" y="592" type="line"/>
      <point x="262" y="538" type="line"/>
      <point x="235" y="490" type="line"/>
      <point x="232" y="490" type="line"/>
      <point x="218" y="542" type="line"/>
      <point x="202" y="592" type="line"/>
      <point x="89" y="592" type="line"/>
      <point x="145" y="437" type="line"/>
    </contour>
  </outline>
</glyph>
<glyph name="y" format="1">
  <advance width="518"/>
  <outline>
    <contour>
      <point x="24" y="-52" type="curve"/>
      <point x="-24" y="-166" type="line"/>
      <point x="-4" y="-178"/>
      <point x="32" y="-188"/>
      <point x="52" y="-188" type="curve" smooth="yes"/>
      <point x="158" y="-188"/>
      <point x="224" y="-128"/>
      <point x="299" y="1" type="curve" smooth="yes"/>
      <point x="560" y="500" type="line"/>
      <point x="406" y="500" type="line"/>
      <point x="316" y="295" type="line" smooth="yes"/>
      <point x="296" y="250"/>
      <point x="272" y="190"/>
      <point x="252" y="144" type="curve"/>
      <point x="248" y="144" type="line"/>
      <point x="248" y="192"/>
      <point x="246" y="252"/>
      <point x="242" y="295" type="curve" smooth="yes"/>
      <point x="224" y="500" type="line"/>
      <point x="65" y="500" type="line"/>
      <point x="153" y="15" type="line"/>
      <point x="143" y="-5" type="line" smooth="yes"/>
      <point x="125" y="-40"/>
      <point x="92" y="-62"/>
      <point x="62" y="-62" type="curve" smooth="yes"/>
      <point x="48" y="-62"/>
      <point x="34" y="-58"/>
    </contour>
    <contour>
      <point x="308" y="522" type="move" name="aboveLC"/>
    </contour>
    <contour>
      <point x="142" y="-242" type="move" name="belowLC"/>
    </contour>
  </outline>
</glyph>
<glyph name="y.sups" format="1">
  <advance width="349"/>
  <outline>
    <contour>
      <point x="71" y="214" type="curve" smooth="yes"/>
      <point x="62" y="214"/>
      <point x="52" y="216"/>
      <point x="42" y="220" type="curve"/>
      <point x="10" y="142" type="line"/>
      <point x="32" y="130"/>
      <point x="51" y="128"/>
      <point x="74" y="128" type="curve" smooth="yes"/>
      <point x="146" y="128"/>
      <point x="190" y="171"/>
      <point x="232" y="245" type="curve" smooth="yes"/>
      <point x="408" y="592" type="line"/>
      <point x="302" y="592" type="line"/>
      <point x="238" y="441" type="line"/>
      <point x="197" y="340" type="line"/>
      <point x="195" y="340" type="line"/>
      <point x="194" y="441" type="line"/>
      <point x="183" y="592" type="line"/>
      <point x="75" y="592" type="line"/>
      <point x="130" y="253" type="line"/>
      <point x="124" y="240" type="line"/>
      <point x="115" y="224"/>
      <point x="98" y="214"/>
    </contour>
  </outline>
</glyph>
<glyph name="yat.001" format="1">
  <advance width="592"/>
  <outline>
    <contour>
      <point x="97" y="0" type="line"/>
      <point x="305" y="0" type="line" smooth="yes"/>
      <point x="441" y="0"/>
      <point x="554" y="54"/>
      <point x="554" y="208" type="curve" smooth="yes"/>
      <point x="554" y="308"/>
      <point x="476" y="343"/>
      <point x="374" y="343" type="curve" smooth="yes"/>
      <point x="324" y="343" type="line"/>
      <point x="340" y="423" type="line"/>
      <point x="495" y="423" type="line"/>
      <point x="510" y="498" type="line"/>
      <point x="355" y="498" type="line"/>
      <point x="381" y="629" type="line"/>
      <point x="223" y="629" type="line"/>
      <point x="197" y="498" type="line"/>
      <point x="79" y="498" type="line"/>
      <point x="64" y="423" type="line"/>
      <point x="182" y="423" type="line"/>
    </contour>
    <contour>
      <point x="279" y="120" type="line"/>
      <point x="300" y="227" type="line"/>
      <point x="345" y="227" type="line" smooth="yes"/>
      <point x="382" y="227"/>
      <point x="400" y="213"/>
      <point x="400" y="186" type="curve" smooth="yes"/>
      <point x="400" y="144"/>
      <point x="376" y="120"/>
      <point x="323" y="120" type="curve" smooth="yes"/>
    </contour>
  </outline>
</glyph>
<glyph name="yturned" format="1">
  <advance width="518"/>
  <outline>
    <contour>
      <point x="504" y="552" type="curve"/>
      <point x="552" y="666" type="line"/>
      <point x="532" y="678"/>
      <point x="496" y="688"/>
      <point x="476" y="688" type="curve" smooth="yes"/>
      <point x="370" y="688"/>
      <point x="304" y="628"/>
      <point x="229" y="499" type="curve"/>
      <point x="-32" y="0" type="line"/>
      <point x="122" y="0" type="line"/>
      <point x="212" y="205" type="line" smooth="yes"/>
      <point x="232" y="250"/>
      <point x="256" y="310"/>
      <point x="276" y="356" type="curve"/>
      <point x="280" y="356" type="line"/>
      <point x="280" y="308"/>
      <point x="282" y="248"/>
      <point x="286" y="205" type="curve" smooth="yes"/>
      <point x="304" y="0" type="line"/>
      <point x="463" y="0" type="line"/>
      <point x="375" y="485" type="line"/>
      <point x="385" y="505" type="line" smooth="yes"/>
      <point x="403" y="540"/>
      <point x="436" y="562"/>
      <point x="466" y="562" type="curve" smooth="yes"/>
      <point x="480" y="562"/>
      <point x="494" y="558"/>
    </contour>
    <contour>
      <point x="300.0" y="522.0" type="move" name="aboveLC"/>
    </contour>
    <contour>
      <point x="134.0" y="-242.0" type="move" name="belowLC"/>
    </contour>
  </outline>
</glyph>
<glyph name="z" format="1">
  <advance width="456"/>
  <outline>
    <contour>
      <point x="-10" y="0" type="line"/>
      <point x="380" y="0" type="line"/>
      <point x="404" y="124" type="line"/>
      <point x="214" y="124" type="line"/>
      <point x="454" y="408" type="line"/>
      <point x="472" y="500" type="line"/>
      <point x="108" y="500" type="line"/>
      <point x="84" y="376" type="line"/>
      <point x="248" y="376" type="line"/>
      <point x="8" y="90" type="line"/>
    </contour>
    <contour>
      <point x="296" y="522" type="move" name="aboveLC"/>
    </contour>
    <contour>
      <point x="190" y="-22" type="move" name="belowLC"/>
    </contour>
  </outline>
</glyph>
<glyph name="z.sups" format="1">
  <advance width="307"/>
  <outline>
    <contour>
      <point x="27" y="260" type="line"/>
      <point x="290" y="260" type="line"/>
      <point x="306" y="346" type="line"/>
      <point x="183" y="346" type="line"/>
      <point x="338" y="529" type="line"/>
      <point x="351" y="592" type="line"/>
      <point x="105" y="592" type="line"/>
      <point x="89" y="506" type="line"/>
      <point x="195" y="506" type="line"/>
      <point x="39" y="321" type="line"/>
    </contour>
  </outline>
</glyph>
<glyph name="zero.0ps" format="1">
  <advance width="556"/>
  <outline>
    <contour>
      <point x="313" y="134" type="line"/>
      <point x="423" y="134" type="line"/>
      <point x="255" y="504" type="line"/>
      <point x="145" y="504" type="line"/>
    </contour>
    <component base="zero.pnum"/>
  </outline>
</glyph>
